<?xml version="1.0" standalone="no"?>
<!DOCTYPE svg PUBLIC "-//W3C//DTD SVG 20010904//EN"
 "http://www.w3.org/TR/2001/REC-SVG-20010904/DTD/svg10.dtd">
<svg version="1.0" xmlns="http://www.w3.org/2000/svg"
 width="2002.000000pt" height="1501.000000pt" viewBox="0 0 2002.000000 1501.000000"
 preserveAspectRatio="xMidYMid meet">

<g transform="translate(0.000000,1501.000000) scale(0.100000,-0.100000)"
fill="#000000" stroke="none">
<path d="M9653 12796 c-23 -7 -57 -23 -76 -35 -27 -16 -50 -21 -108 -21 -349
-1 -944 -112 -1324 -248 -511 -183 -910 -434 -1260 -794 -443 -454 -728 -1029
-869 -1753 -39 -201 -64 -404 -86 -720 -54 -766 -102 -1169 -155 -1310 -49
-127 -187 -550 -370 -1130 -69 -220 -148 -470 -175 -555 -143 -453 -535 -1741
-651 -2140 -17 -58 -44 -148 -59 -200 -115 -383 -282 -992 -332 -1208 -76
-333 -12 -603 189 -793 101 -97 190 -129 353 -129 49 0 418 20 819 45 719 44
1475 87 2171 122 316 16 569 18 2300 18 1889 0 1958 -1 2385 -23 824 -42 1762
-97 2555 -147 390 -25 462 -20 575 37 205 105 327 342 328 637 0 125 -58 370
-238 1006 -305 1078 -1100 3652 -1356 4390 -86 249 -105 401 -184 1430 -27
355 -55 563 -109 801 -157 691 -431 1209 -876 1655 -254 255 -501 430 -835
594 -191 93 -300 138 -492 200 -347 113 -709 180 -1109 205 -167 11 -184 14
-249 43 l-70 32 -325 2 c-247 2 -335 -1 -367 -11z m-1086 -402 c-3 -3 -12 -4
-19 -1 -8 3 -5 6 6 6 11 1 17 -2 13 -5z m-133 -39 c-4 -8 -15 -15 -26 -15 -10
0 -16 -4 -13 -10 7 -12 3 -12 -20 -4 -13 5 -7 11 22 25 21 9 39 18 40 18 1 1
0 -6 -3 -14z m-98 -37 c-9 -5 -13 -15 -10 -21 4 -7 4 -9 -1 -5 -4 4 -16 3 -26
-3 -24 -12 -25 -1 -1 18 16 14 16 14 -3 8 -39 -14 -71 -16 -35 -2 41 15 101
19 76 5z m-181 -48 c-3 -5 -12 -10 -18 -10 -7 0 -6 4 3 10 19 12 23 12 15 0z
m115 6 c0 -2 -7 -7 -16 -10 -8 -3 -12 -2 -9 4 6 10 25 14 25 6z m-73 -12 c-3
-3 -12 -4 -19 -1 -8 3 -5 6 6 6 11 1 17 -2 13 -5z m-78 -18 c-3 -3 -20 -8 -39
-11 -19 -3 -30 -2 -23 3 13 8 70 15 62 8z m57 -8 c4 -6 3 -9 -2 -6 -5 3 -22
-1 -39 -8 -16 -7 -23 -13 -15 -14 13 -1 13 -2 0 -9 -8 -5 -26 -11 -40 -15 -22
-5 -21 -4 5 10 20 10 23 14 9 11 -12 -3 -28 -1 -35 4 -8 5 -9 9 -4 9 52 5 75
9 91 18 24 14 22 14 30 0z m-186 -36 c0 -4 -16 -14 -36 -21 -24 -9 -32 -16
-24 -21 8 -5 7 -9 -5 -13 -9 -4 -13 -3 -10 3 3 6 -2 10 -12 10 -10 0 5 11 32
24 60 29 55 28 55 18z m-5 -32 c-3 -5 -14 -10 -23 -10 -15 0 -15 2 -2 10 20
13 33 13 25 0z m55 -10 c-8 -5 -19 -10 -25 -10 -5 0 -3 5 5 10 8 5 20 10 25
10 6 0 3 -5 -5 -10z m-149 -17 c13 -16 12 -17 -3 -4 -10 7 -18 15 -18 17 0 8
8 3 21 -13z m-15 -20 c-3 -3 -12 0 -20 6 -10 8 -16 9 -21 1 -3 -5 -11 -10 -18
-10 -6 0 -2 6 8 14 14 10 25 11 38 4 10 -5 16 -12 13 -15z m119 17 c4 -6 -1
-7 -11 -3 -10 3 -15 2 -12 -3 4 -5 -6 -10 -20 -11 -25 -1 -26 0 -7 13 22 16
41 18 50 4z m-78 -26 c-3 -3 -12 -4 -19 -1 -8 3 -5 6 6 6 11 1 17 -2 13 -5z
m5 -25 c-18 -12 -35 -19 -38 -16 -3 3 7 12 23 20 42 22 52 20 15 -4z m-123 2
c12 -8 12 -12 2 -25 -8 -9 -19 -16 -25 -15 -6 0 -3 5 6 12 15 10 15 12 0 24
-19 14 -5 17 17 4z m69 2 c-10 -2 -18 -9 -18 -14 0 -5 -5 -9 -11 -9 -8 0 -8 5
1 15 7 8 20 14 29 14 13 -1 13 -2 -1 -6z m-103 -15 c4 -3 2 -9 -3 -12 -5 -3
-15 1 -21 8 -10 11 -9 14 3 12 9 -1 18 -5 21 -8z m-40 -18 c-3 -5 -12 -10 -18
-10 -7 0 -6 4 3 10 19 12 23 12 15 0z m145 1 c0 -5 -7 -12 -16 -15 -14 -5 -15
-4 -4 9 14 17 20 19 20 6z m-40 -5 c0 -3 -4 -8 -10 -11 -5 -3 -10 -1 -10 4 0
6 5 11 10 11 6 0 10 -2 10 -4z m-156 -31 c-3 -7 -12 -16 -20 -19 -16 -6 -10
-26 7 -26 6 0 7 5 4 10 -3 6 -1 10 4 10 16 0 13 -16 -4 -34 -17 -17 -20 -36
-4 -36 5 0 7 -5 4 -11 -5 -6 -12 -4 -20 8 -9 12 -10 22 -3 30 12 15 2 33 -20
33 -15 0 -15 -2 -2 -11 12 -8 12 -10 1 -7 -8 2 -15 11 -17 20 -1 11 3 15 12
11 18 -7 56 26 47 40 -3 6 -1 7 5 3 6 -4 9 -13 6 -21z m-24 11 c0 -2 -8 -10
-17 -17 -16 -13 -17 -12 -4 4 13 16 21 21 21 13z m140 0 c0 -2 -7 -7 -16 -10
-8 -3 -12 -2 -9 4 6 10 25 14 25 6z m0 -30 c0 -2 -7 -7 -16 -10 -8 -3 -12 -2
-9 4 6 10 25 14 25 6z m-200 -36 c0 -17 -21 -21 -35 -6 -11 11 -12 15 -2 19
15 5 37 -2 37 -13z m135 -10 c-3 -5 -16 -15 -28 -21 -19 -9 -19 -8 3 10 28 23
34 26 25 11z m-209 -44 c2 -14 1 -26 -3 -26 -5 0 -9 14 -9 31 -2 35 5 33 12
-5z m-42 3 c-3 -6 0 -15 7 -20 9 -6 10 -9 2 -9 -15 0 -26 17 -18 30 3 6 8 10
11 10 3 0 2 -5 -2 -11z m-31 -21 c-6 -7 -9 -27 -8 -45 1 -27 -1 -31 -16 -22
-20 10 -49 2 -49 -14 0 -7 -4 -7 -12 1 -9 9 -18 5 -40 -19 -15 -16 -28 -36
-29 -42 0 -8 -2 -7 -6 1 -7 19 56 82 75 75 10 -4 13 -2 8 5 -5 8 -1 10 10 5
11 -4 15 -3 11 5 -4 5 7 22 25 36 36 28 46 33 31 14z m4130 5 c-7 -2 -19 -2
-25 0 -7 3 -2 5 12 5 14 0 19 -2 13 -5z m70 0 c-7 -2 -19 -2 -25 0 -7 3 -2 5
12 5 14 0 19 -2 13 -5z m-4003 -9 c0 -1 -10 -9 -23 -17 -16 -10 -28 -12 -38
-6 -11 8 -10 9 6 7 11 -2 19 2 18 7 -1 6 7 11 18 11 10 0 19 -1 19 -2z m4190
-34 c23 -6 40 -14 37 -17 -6 -6 -107 26 -107 34 0 3 6 3 14 0 8 -3 33 -11 56
-17z m-4257 -11 c4 -3 2 -11 -6 -18 -12 -9 -14 -7 -14 14 0 14 2 22 6 18 3 -4
10 -10 14 -14z m-38 -19 c-1 -10 -22 -38 -48 -60 -26 -23 -45 -36 -42 -28 3 7
23 26 45 42 22 16 37 33 34 38 -3 4 -2 13 1 18 9 15 12 12 10 -10z m4054 -7
c-1 -16 1 -35 5 -44 4 -10 4 -19 -1 -22 -5 -3 -9 2 -10 11 -1 9 -4 32 -7 50
-3 18 -1 32 5 32 5 0 9 -12 8 -27z m216 17 c13 -5 14 -9 5 -9 -8 0 -24 4 -35
9 -13 5 -14 9 -5 9 8 0 24 -4 35 -9z m-254 -7 c0 -5 2 -16 4 -26 2 -9 0 -15
-5 -12 -12 7 -19 45 -9 45 5 0 9 -3 10 -7z m346 -9 c-3 -3 -12 -4 -19 -1 -8 3
-5 6 6 6 11 1 17 -2 13 -5z m63 -14 c8 -5 12 -11 10 -14 -3 -2 -14 2 -24 10
-22 15 -10 19 14 4z m-4485 -16 c-17 -17 -22 -17 -28 -1 -3 7 5 13 19 13 20 2
21 0 9 -12z m4475 -20 c0 -2 -7 -4 -15 -4 -8 0 -15 4 -15 10 0 5 7 7 15 4 8
-4 15 -8 15 -10z m99 -8 l24 -14 -22 -7 c-12 -4 -25 -4 -28 -1 -4 3 2 6 13 6
16 1 15 3 -6 15 -14 8 -20 14 -15 14 6 0 21 -6 34 -13z m-4785 -12 c3 -9 2
-12 -5 -9 -5 4 -18 1 -27 -6 -13 -11 -12 -8 2 9 23 26 22 26 30 6z m66 6 c0
-5 -4 -10 -10 -10 -5 0 -10 5 -10 10 0 6 5 10 10 10 6 0 10 -4 10 -10z m4657
-6 c-3 -3 -12 -4 -19 -1 -8 3 -5 6 6 6 11 1 17 -2 13 -5z m123 -19 c0 -12 -19
-12 -23 0 -4 9 -1 12 9 8 7 -3 14 -7 14 -8z m-143 -1 c-3 -3 -12 -4 -19 -1 -8
3 -5 6 6 6 11 1 17 -2 13 -5z m-4577 -8 c0 -2 -7 -7 -16 -10 -8 -3 -12 -2 -9
4 6 10 25 14 25 6z m32 -3 c-6 -2 -10 -8 -7 -12 2 -5 -10 -21 -28 -37 l-32
-29 29 33 c17 17 26 32 22 32 -4 0 -4 5 -1 10 3 6 12 10 18 9 9 0 8 -2 -1 -6z
m4238 -24 c-13 -8 -13 -11 3 -20 9 -5 17 -15 17 -22 0 -6 -10 -2 -22 10 -18
19 -19 24 -8 38 7 8 15 13 19 10 3 -3 -1 -10 -9 -16z m590 -44 c0 -7 -119 50
-120 58 0 4 27 -6 60 -23 33 -17 60 -32 60 -35z m-5055 28 c0 -32 -17 -40 -36
-16 -13 16 -12 17 4 4 21 -16 35 -7 19 12 -7 8 -9 17 -5 20 13 13 19 7 18 -20z
m4950 -4 c16 -16 -20 -10 -41 7 -18 14 -18 15 6 8 14 -3 29 -10 35 -15z m45
-19 c12 -8 9 -9 -12 -8 -15 1 -24 6 -22 10 7 10 16 10 34 -2z m-480 -14 c0 -2
-7 -7 -16 -10 -8 -3 -12 -2 -9 4 6 10 25 14 25 6z m-4390 -41 c-18 -19 -26
-22 -32 -13 -12 19 -9 36 3 18 8 -13 12 -12 26 8 9 12 18 20 21 17 3 -3 -5
-16 -18 -30z m-216 4 c-10 -12 -18 -24 -17 -28 1 -3 0 -8 -2 -9 -2 -2 -3 3 -1
11 2 16 25 47 34 47 3 0 -3 -9 -14 -21z m5158 3 c-7 -2 -12 -11 -12 -19 0 -9
-3 -14 -6 -10 -10 10 7 48 19 40 8 -5 8 -8 -1 -11z m75 -11 c36 -24 39 -29 19
-27 -13 0 -22 4 -19 9 2 4 0 7 -6 7 -5 0 -13 -4 -16 -10 -3 -5 -11 -10 -18
-10 -6 0 -2 6 9 14 10 8 16 18 12 22 -4 4 -14 1 -23 -6 -10 -8 -15 -9 -15 -1
0 6 6 11 13 11 8 0 7 4 -3 10 -8 5 -10 10 -5 10 6 0 29 -13 52 -29z m-613 3
c5 -14 4 -15 -9 -4 -17 14 -19 20 -6 20 5 0 12 -7 15 -16z m-4440 -46 c-3 -4
-11 -5 -19 -1 -21 7 -19 12 4 10 11 0 18 -5 15 -9z m-61 -22 c-10 -13 -20 -22
-22 -20 -4 4 29 44 36 44 2 0 -4 -11 -14 -24z m-192 -13 c13 -16 12 -17 -3 -4
-10 7 -18 15 -18 17 0 8 8 3 21 -13z m229 13 c0 -2 -8 -10 -17 -17 -16 -13
-17 -12 -4 4 13 16 21 21 21 13z m4553 -19 c4 3 7 1 7 -5 0 -7 -4 -12 -8 -12
-12 0 -32 22 -32 35 0 5 7 2 14 -7 7 -10 16 -15 19 -11z m613 -14 c-7 -7 -26
7 -26 19 0 6 6 6 15 -2 9 -7 13 -15 11 -17z m50 -4 c4 -8 1 -8 -14 0 -12 6
-24 16 -28 22 -4 8 -1 8 14 0 12 -6 24 -16 28 -22z m-5476 7 c0 -3 -4 -8 -10
-11 -5 -3 -10 -1 -10 4 0 6 5 11 10 11 6 0 10 -2 10 -4z m213 -27 c-8 -8 -13
-7 -18 2 -5 8 -4 10 3 5 7 -4 12 -2 12 5 0 7 3 9 7 6 4 -4 2 -12 -4 -18z
m4657 -10 c0 -4 -7 -9 -15 -13 -15 -5 -39 26 -29 37 7 7 44 -14 44 -24z
m-4710 -14 c-7 -9 -15 -13 -18 -10 -3 2 1 11 8 20 7 9 15 13 18 10 3 -2 -1
-11 -8 -20z m-208 3 c-14 -14 -16 -32 -3 -24 5 4 8 -2 6 -11 -2 -10 -4 -24 -4
-32 -1 -8 -8 -4 -21 10 l-19 24 -1 -22 c0 -13 -6 -23 -15 -23 -9 0 -12 -6 -8
-17 4 -11 3 -14 -5 -9 -7 4 -12 2 -12 -3 0 -6 10 -12 23 -12 21 -2 21 -2 1 -6
-18 -3 -22 -10 -20 -42 2 -36 1 -37 -31 -37 -18 1 -33 1 -33 2 0 1 14 19 31
40 27 35 29 39 12 45 -10 4 -13 8 -7 8 6 1 24 19 39 40 18 27 32 38 43 34 10
-4 13 -2 8 6 -7 11 9 41 22 41 3 0 1 -5 -6 -12z m5579 -5 c13 -16 12 -17 -3
-4 -17 13 -22 21 -14 21 2 0 10 -8 17 -17z m-5351 -14 c-7 -11 -14 -18 -17
-15 -3 3 0 12 7 21 18 21 23 19 10 -6z m5330 2 c0 -5 -7 -11 -14 -14 -10 -4
-13 -1 -9 9 6 15 23 19 23 5z m-5371 -57 c-12 -11 -14 -8 -15 22 -1 34 -1 34
14 13 12 -18 12 -23 1 -35z m4772 13 c-10 -9 -11 -8 -5 6 3 10 9 15 12 12 3
-3 0 -11 -7 -18z m705 -36 c-4 -6 -12 -11 -18 -11 -6 0 -5 7 3 16 12 15 11 16
-11 11 -14 -4 -19 -4 -12 -1 17 8 15 27 -2 21 -10 -4 -13 -1 -9 9 5 13 10 11
31 -9 13 -14 21 -30 18 -36z m-5686 9 c0 -5 -5 -10 -11 -10 -5 0 -7 5 -4 10 3
6 8 10 11 10 2 0 4 -4 4 -10z m160 0 c0 -5 8 -10 18 -10 10 0 13 -3 6 -8 -6
-4 -23 -25 -37 -47 -33 -48 -36 -41 -5 11 15 26 18 39 10 42 -14 4 -16 22 -2
22 6 0 10 -4 10 -10z m4899 -41 c7 10 9 7 8 -12 -2 -30 -16 -22 -48 27 l-21
31 26 -30 c21 -24 28 -27 35 -16z m-5039 11 c-24 -15 -36 -11 -14 4 10 8 21
12 24 10 2 -3 -2 -9 -10 -14z m5706 -7 c-10 -11 -19 -7 -22 10 -2 15 0 16 12
6 8 -6 12 -14 10 -16z m-5606 -20 c-11 -17 -11 -17 -6 0 3 10 6 24 7 30 0 9 2
9 5 0 3 -7 0 -20 -6 -30z m-227 -17 c-10 -14 -22 -26 -26 -26 -5 0 2 13 15 29
28 35 37 32 11 -3z m5257 12 c0 -6 -6 -5 -15 2 -8 7 -15 14 -15 16 0 2 7 1 15
-2 8 -4 15 -11 15 -16z m620 -18 c0 -6 -9 -5 -20 2 -11 7 -20 16 -20 21 0 4 9
3 20 -3 11 -6 20 -15 20 -20z m-650 0 c0 -5 -7 -7 -15 -4 -8 4 -15 8 -15 10 0
2 7 4 15 4 8 0 15 -4 15 -10z m622 -32 c-7 -7 -12 -8 -12 -2 0 14 12 26 19 19
2 -3 -1 -11 -7 -17z m69 -16 c-20 -7 -11 -22 11 -19 18 2 23 -3 23 -24 1 -18
-3 -25 -12 -22 -10 4 -10 9 -3 18 15 18 0 26 -17 10 -8 -8 -11 -20 -7 -26 4
-7 3 -9 -4 -5 -6 3 -9 23 -7 44 1 20 -2 44 -8 52 -7 8 -1 6 11 -5 13 -11 19
-21 13 -23z m-5945 6 c5 -7 3 -8 -6 -3 -9 6 -12 4 -8 -7 4 -8 0 -15 -7 -15
-10 0 -11 5 -4 19 11 21 15 22 25 6z m5277 -22 c-8 -15 -11 -15 -28 4 -10 11
-13 20 -7 20 7 0 12 -4 12 -10 0 -5 5 -10 11 -10 6 0 8 7 4 18 -5 13 -3 14 5
5 8 -7 9 -17 3 -27z m-5085 -1 c-3 -3 -9 2 -12 12 -6 14 -5 15 5 6 7 -7 10
-15 7 -18z m25 -17 c-10 -21 -10 -21 -9 9 1 19 5 28 10 23 6 -6 5 -18 -1 -32z
m-248 -18 c18 -20 18 -20 -6 -16 -13 2 -31 -2 -39 -8 -13 -10 -13 -9 -1 6 7
10 18 15 24 11 6 -4 8 0 4 10 -8 22 -4 21 18 -3z m5388 -7 c5 -26 4 -26 -9 -8
-16 22 -18 35 -5 35 5 0 11 -12 14 -27z m-35 -9 c7 -14 8 -23 2 -19 -15 9 -32
45 -22 45 5 0 14 -12 20 -26z m742 -67 c0 -5 -10 4 -23 20 -43 53 -50 68 -13
28 20 -22 36 -44 36 -48z m-5915 43 c-3 -5 -11 -10 -16 -10 -6 0 -7 5 -4 10 3
6 11 10 16 10 6 0 7 -4 4 -10z m-231 -8 c3 -5 -1 -9 -9 -9 -8 0 -12 4 -9 9 3
4 7 8 9 8 2 0 6 -4 9 -8z m225 -46 c-12 -14 -26 -23 -32 -19 -5 3 -7 -4 -3
-18 l7 -24 -15 25 c-16 28 -11 47 9 30 9 -8 17 -4 30 16 9 14 19 24 22 21 2
-3 -6 -17 -18 -31z m5294 7 c5 -26 4 -26 -9 -8 -16 22 -18 35 -5 35 5 0 11
-12 14 -27z m-5546 2 c0 -8 -4 -12 -9 -9 -5 3 -6 10 -3 15 9 13 12 11 12 -6z
m33 -20 c0 -5 -5 -3 -10 5 -5 8 -10 20 -10 25 0 6 5 3 10 -5 5 -8 10 -19 10
-25z m5478 9 c7 -14 8 -23 2 -19 -15 9 -32 45 -22 45 5 0 14 -12 20 -26z m632
16 c0 -5 -4 -10 -10 -10 -5 0 -10 5 -10 10 0 6 5 10 10 10 6 0 10 -4 10 -10z
m-6169 -53 c-10 -9 -11 -8 -5 6 3 10 9 15 12 12 3 -3 0 -11 -7 -18z m29 -17
c-16 -31 -23 -18 -8 15 7 15 14 23 16 17 2 -6 -2 -21 -8 -32z m6250 -37 c0 -7
4 -13 8 -13 8 0 42 -53 42 -66 0 -10 -47 56 -59 83 -17 38 -39 38 -32 0 1 -5
-3 -6 -9 -2 -7 4 -7 12 0 26 6 11 8 25 5 32 -4 6 5 -1 19 -18 14 -16 26 -36
26 -42z m-630 25 c0 -19 -2 -20 -10 -8 -13 19 -13 30 0 30 6 0 10 -10 10 -22z
m-5418 -24 c-9 -16 -10 -14 -9 8 1 15 6 23 11 18 4 -4 4 -16 -2 -26z m5382 21
c3 -8 1 -15 -3 -15 -5 0 -11 7 -15 15 -3 8 -1 15 3 15 5 0 11 -7 15 -15z
m-5647 -20 c0 -8 -4 -12 -9 -9 -5 3 -6 10 -3 15 9 13 12 11 12 -6z m5750 -84
c21 -19 23 -20 32 -4 8 16 12 15 35 -10 28 -30 23 -37 -6 -10 -16 15 -21 15
-28 3 -10 -15 -17 -11 -100 69 l-35 34 40 -31 c22 -17 50 -40 62 -51z m-5742
57 c11 9 -4 -16 -29 -50 -11 -16 -27 -28 -35 -28 -11 0 -10 4 5 15 11 8 14 14
6 15 -10 0 -10 3 0 14 8 8 15 10 19 4 4 -7 9 -6 14 1 4 7 1 20 -7 29 -11 15
-11 15 3 5 9 -7 20 -9 24 -5z m5745 -4 c0 -2 -7 -4 -15 -4 -8 0 -15 4 -15 10
0 5 7 7 15 4 8 -4 15 -8 15 -10z m565 -24 c3 -5 2 -10 -4 -10 -5 0 -13 5 -16
10 -3 6 -2 10 4 10 5 0 13 -4 16 -10z m-6105 -44 c0 -26 -6 -18 -14 19 -5 22
-4 26 4 15 5 -8 10 -24 10 -34z m5635 13 c11 -16 1 -19 -13 -3 -7 8 -8 14 -3
14 5 0 13 -5 16 -11z m539 -59 c-5 -5 -9 4 -10 23 -1 30 -1 30 9 9 6 -14 7
-26 1 -32z m-6197 8 c-3 -8 -6 -5 -6 6 -1 11 2 17 5 13 3 -3 4 -12 1 -19z
m5618 12 c3 -5 1 -10 -4 -10 -6 0 -11 5 -11 10 0 6 2 10 4 10 3 0 8 -4 11 -10z
m-5892 -32 c-3 -16 -9 -28 -14 -28 -4 0 -3 14 3 31 12 36 18 35 11 -3z m6438
9 c-10 -9 -11 -8 -5 6 3 10 9 15 12 12 3 -3 0 -11 -7 -18z m-505 -19 l19 -21
-27 18 c-29 18 -34 25 -20 25 5 0 17 -10 28 -22z m-5671 2 c3 -5 1 -10 -4 -10
-6 0 -11 5 -11 10 0 6 2 10 4 10 3 0 8 -4 11 -10z m5751 -1 c11 -18 -14 -35
-28 -20 -11 10 -10 11 5 6 19 -8 24 10 5 18 -10 4 -10 6 -1 6 6 1 15 -4 19
-10z m-5793 -31 c-3 -16 -9 -28 -14 -28 -11 0 -11 3 1 36 13 33 20 29 13 -8z
m17 -27 c-11 -17 -18 -36 -14 -42 4 -8 3 -9 -4 -5 -7 4 -12 1 -13 -6 -1 -17
-28 43 -28 62 0 8 6 0 13 -18 l12 -33 23 41 c13 23 25 39 28 36 3 -3 -5 -19
-17 -35z m6284 -1 c-5 -5 -10 3 -11 18 -1 22 0 24 9 8 6 -10 6 -22 2 -26z
m-6563 -3 c-10 -9 -11 -8 -5 6 3 10 9 15 12 12 3 -3 0 -11 -7 -18z m6137 -35
c-5 12 -2 14 13 11 18 -5 19 -6 2 -18 -15 -11 -23 -10 -45 3 -16 9 -28 20 -28
25 0 5 14 -2 32 -14 23 -17 30 -19 26 -7z m435 13 c-3 -9 -8 -14 -10 -11 -3 3
-2 9 2 15 9 16 15 13 8 -4z m17 -23 c0 -5 -7 -17 -16 -28 -8 -10 -14 -14 -11
-9 2 6 7 18 10 28 7 17 17 23 17 9z m-400 -22 c0 -5 -7 -7 -15 -4 -8 4 -15 8
-15 10 0 2 7 4 15 4 8 0 15 -4 15 -10z m-6210 -20 c-7 -5 -9 -13 -5 -20 5 -8
4 -11 -3 -6 -16 10 -11 45 6 39 10 -5 11 -8 2 -13z m6567 -12 c-3 -8 -6 -5 -6
6 -1 11 2 17 5 13 3 -3 4 -12 1 -19z m20 -20 c-3 -8 -6 -5 -6 6 -1 11 2 17 5
13 3 -3 4 -12 1 -19z m29 -14 c-4 -14 -9 -24 -12 -21 -3 2 -2 17 2 31 3 15 9
25 11 22 3 -3 2 -17 -1 -32z m-6630 -31 c2 -27 1 -32 -5 -18 -8 18 -9 17 -12
-9 l-4 -29 -11 31 c-9 24 -9 29 1 26 18 -7 30 15 16 29 -8 8 -11 7 -11 -3 0
-7 -2 -11 -5 -8 -3 3 -3 13 1 22 10 26 26 4 30 -41z m6391 51 c-3 -3 -12 -4
-19 -1 -8 3 -5 6 6 6 11 1 17 -2 13 -5z m58 -34 c8 -13 -5 -13 -25 0 -13 8
-13 10 2 10 9 0 20 -4 23 -10z m-6225 -24 c0 -3 -4 -8 -10 -11 -5 -3 -10 -1
-10 4 0 6 5 11 10 11 6 0 10 -2 10 -4z m4 -50 c-12 -34 -19 -44 -25 -35 -6 10
-9 5 -9 -15 0 -16 -3 -27 -6 -23 -3 3 -3 25 2 49 6 37 8 39 13 19 6 -23 8 -21
20 18 7 24 14 41 17 39 2 -3 -3 -26 -12 -52z m6313 48 c-3 -3 -12 -4 -19 -1
-8 3 -5 6 6 6 11 1 17 -2 13 -5z m-6596 -47 c-10 -9 -11 -8 -5 6 3 10 9 15 12
12 3 -3 0 -11 -7 -18z m-14 -59 c-3 -8 -6 -5 -6 6 -1 11 2 17 5 13 3 -3 4 -12
1 -19z m-22 -65 c-3 -42 -4 -45 -16 -37 -7 4 -10 1 -7 -6 9 -27 25 -19 35 17
l10 38 -1 -47 c-1 -27 -4 -41 -9 -35 -5 7 -6 0 -2 -17 5 -24 4 -26 -8 -15 -8
8 -16 21 -20 29 -4 12 -6 11 -6 -2 -1 -10 -5 -18 -11 -18 -5 0 -10 -8 -11 -17
0 -10 -3 -13 -5 -6 -3 7 0 22 7 35 13 22 14 27 17 56 1 7 7 10 13 6 6 -3 10 1
9 12 -3 22 -1 34 4 34 1 0 2 -12 1 -27z m202 -85 c-3 -8 -6 -5 -6 6 -1 11 2
17 5 13 3 -3 4 -12 1 -19z m36 -59 c-4 -4 -9 6 -10 24 -1 30 -1 31 8 8 5 -14
6 -28 2 -32z m-239 1 c-6 -5 -24 21 -24 34 0 6 6 1 14 -10 8 -10 12 -21 10
-24z m193 8 c-3 -7 -5 -2 -5 12 0 14 2 19 5 13 2 -7 2 -19 0 -25z m20 -20 c-3
-7 -5 -2 -5 12 0 14 2 19 5 13 2 -7 2 -19 0 -25z m-284 -51 c3 -8 2 -20 -3
-26 -5 -9 -7 -4 -7 13 0 29 2 32 10 13z m280 -22 c-3 -9 -8 -14 -10 -11 -3 3
-2 9 2 15 9 16 15 13 8 -4z m-273 -45 c0 -5 -2 -10 -4 -10 -3 0 -8 5 -11 10
-3 6 -1 10 4 10 6 0 11 -4 11 -10z m270 -25 c0 -5 -5 -3 -10 5 -5 8 -10 20
-10 25 0 6 5 3 10 -5 5 -8 10 -19 10 -25z m-273 -47 c-3 -8 -6 -5 -6 6 -1 11
2 17 5 13 3 -3 4 -12 1 -19z m-50 -30 c-3 -8 -6 -5 -6 6 -1 11 2 17 5 13 3 -3
4 -12 1 -19z m240 -40 c-3 -7 -5 -2 -5 12 0 14 2 19 5 13 2 -7 2 -19 0 -25z
m40 -20 c-3 -8 -6 -5 -6 6 -1 11 2 17 5 13 3 -3 4 -12 1 -19z m3 -57 c-1 -13
-30 34 -30 48 0 9 7 3 15 -13 8 -15 15 -31 15 -35z m-40 14 c0 -5 -5 -3 -10 5
-5 8 -10 20 -10 25 0 6 5 3 10 -5 5 -8 10 -19 10 -25z m24 -69 c-3 -15 -8 -25
-11 -23 -2 3 -1 17 3 31 3 15 8 25 11 23 2 -3 1 -17 -3 -31z m-27 -18 c-3 -7
-5 -2 -5 12 0 14 2 19 5 13 2 -7 2 -19 0 -25z m-267 -18 c0 -13 -1 -13 -10 0
-5 8 -10 22 -10 30 0 13 1 13 10 0 5 -8 10 -22 10 -30z m277 -62 c-3 -8 -6 -5
-6 6 -1 11 2 17 5 13 3 -3 4 -12 1 -19z m-267 -73 c0 -5 -5 -3 -10 5 -5 8 -10
20 -10 25 0 6 5 3 10 -5 5 -8 10 -19 10 -25z m-38 -2 c-3 -16 -7 -22 -10 -15
-4 13 4 42 11 42 2 0 2 -12 -1 -27z m25 -70 c-3 -10 -5 -2 -5 17 0 19 2 27 5
18 2 -10 2 -26 0 -35z m-10 -65 c-3 -7 -5 -2 -5 12 0 14 2 19 5 13 2 -7 2 -19
0 -25z m20 0 c-3 -8 -6 -5 -6 6 -1 11 2 17 5 13 3 -3 4 -12 1 -19z m200 -110
c-3 -8 -6 -5 -6 6 -1 11 2 17 5 13 3 -3 4 -12 1 -19z m33 2 c0 -5 -4 -10 -10
-10 -5 0 -10 5 -10 10 0 6 5 10 10 10 6 0 10 -4 10 -10z m-19 -138 c-6 -2 -11
-13 -11 -24 0 -12 -2 -19 -5 -16 -3 3 -3 25 1 49 7 39 8 41 16 19 6 -16 5 -26
-1 -28z m-44 -94 c-3 -7 -5 -2 -5 12 0 14 2 19 5 13 2 -7 2 -19 0 -25z m51 -9
c-3 -8 -7 -3 -11 10 -4 17 -3 21 5 13 5 -5 8 -16 6 -23z m1529 5 c-3 -3 -12
-4 -19 -1 -8 3 -5 6 6 6 11 1 17 -2 13 -5z m-212 -14 l20 -9 -20 -1 -20 -1 20
-9 c13 -5 14 -9 5 -9 -8 0 -24 4 -35 9 l-20 9 20 0 c17 1 17 3 5 11 -18 12 -2
12 25 0z m237 3 c-6 -2 -10 -8 -7 -13 3 -4 -5 -6 -17 -2 -21 5 -21 6 -2 13 10
4 24 8 29 8 6 -1 4 -3 -3 -6z m89 -11 c-7 -2 -18 1 -23 6 -8 8 -4 9 13 5 13
-4 18 -8 10 -11z m46 12 c-3 -3 -12 -4 -19 -1 -8 3 -5 6 6 6 11 1 17 -2 13 -5z
m-90 -10 c-3 -3 -12 -4 -19 -1 -8 3 -5 6 6 6 11 1 17 -2 13 -5z m-1920 -26
c-3 -8 -6 -5 -6 6 -1 11 2 17 5 13 3 -3 4 -12 1 -19z m1572 6 c10 -9 -55 -3
-69 6 -10 6 -2 7 25 3 22 -3 42 -7 44 -9z m-1262 -16 c-3 -8 -6 -5 -6 6 -1 11
2 17 5 13 3 -3 4 -12 1 -19z m1180 -10 c-7 -4 -16 -8 -22 -8 -5 0 -3 5 5 10
12 8 10 10 -10 10 -19 0 -21 3 -11 9 9 6 21 5 32 -2 13 -8 15 -13 6 -19z m320
26 c-3 -3 -12 -4 -19 -1 -8 3 -5 6 6 6 11 1 17 -2 13 -5z m-407 -8 c0 -2 -7
-6 -15 -10 -8 -3 -15 -1 -15 4 0 6 7 10 15 10 8 0 15 -2 15 -4z m195 -16 c-3
-5 -14 -10 -23 -10 -15 0 -15 2 -2 10 20 13 33 13 25 0z m-1588 -22 c-3 -8 -6
-5 -6 6 -1 11 2 17 5 13 3 -3 4 -12 1 -19z m1520 6 c-3 -3 -12 -4 -19 -1 -8 3
-5 6 6 6 11 1 17 -2 13 -5z m98 -14 c-6 -10 -76 -35 -89 -32 -4 2 -15 -3 -24
-10 -13 -11 -14 -10 -10 2 3 8 13 15 24 16 36 1 94 25 88 36 -4 7 -2 8 5 4 6
-4 9 -11 6 -16z m62 14 c-3 -3 -12 -4 -19 -1 -8 3 -5 6 6 6 11 1 17 -2 13 -5z
m-437 -15 c-12 -9 -11 -10 8 -6 12 3 22 1 22 -4 0 -5 -16 -8 -35 -6 -31 2 -33
4 -18 15 9 6 22 12 27 12 6 0 4 -5 -4 -11z m-1244 -52 c2 -34 0 -37 -6 -17
-11 33 -12 60 -2 60 4 0 8 -19 8 -43z m1193 29 l23 -13 -23 -6 c-13 -3 -25 -4
-28 -2 -2 3 1 5 8 5 7 0 10 4 7 9 -3 5 -16 7 -29 4 -18 -4 -19 -3 -7 6 19 13
20 13 49 -3z m264 -37 c-4 -4 -15 -3 -23 2 -13 9 -12 10 3 5 12 -4 17 0 18 17
1 18 2 19 6 3 3 -10 1 -22 -4 -27z m-328 21 c3 -6 -1 -7 -9 -4 -18 7 -21 14
-7 14 6 0 13 -4 16 -10z m142 4 c-3 -3 -12 -4 -19 -1 -8 3 -5 6 6 6 11 1 17
-2 13 -5z m-975 -31 c-3 -16 -7 -22 -10 -15 -4 13 4 42 11 42 2 0 2 -12 -1
-27z m4843 8 c-3 -6 -14 -11 -23 -11 -9 0 -29 -6 -43 -14 -16 -8 -32 -10 -40
-5 -11 6 -11 9 -1 10 6 1 15 2 20 4 4 1 24 5 45 9 20 5 37 13 37 19 0 6 3 8 6
4 3 -3 3 -10 -1 -16z m-4854 -138 c6 15 7 15 5 1 0 -10 -8 -18 -16 -19 -13 -2
-14 11 -10 84 l5 86 5 -85 c3 -47 8 -77 11 -67z m1095 131 c-2 -16 -41 -43
-61 -43 -5 0 6 8 25 19 42 23 22 27 -23 4 -22 -11 -28 -12 -19 -3 7 8 27 19
45 26 18 6 33 12 34 12 1 1 0 -6 -1 -15z m39 -4 c3 -5 2 -10 -4 -10 -5 0 -13
5 -16 10 -3 6 -2 10 4 10 5 0 13 -4 16 -10z m-392 -11 c-40 -12 -44 -24 -6
-14 16 4 24 3 20 -1 -4 -4 -29 -9 -55 -9 l-47 -2 40 18 c22 10 49 17 60 17 11
0 6 -4 -12 -9z m3997 -19 c8 -5 11 -10 5 -10 -5 0 -17 5 -25 10 -8 5 -10 10
-5 10 6 0 17 -5 25 -10z m70 6 c0 -3 -4 -8 -10 -11 -5 -3 -10 -1 -10 4 0 6 5
11 10 11 6 0 10 -2 10 -4z m23 -11 c-3 -9 -8 -14 -10 -11 -3 3 -2 9 2 15 9 16
15 13 8 -4z m-95 -20 c3 -3 -11 -4 -32 -1 -21 3 -41 7 -44 11 -3 3 12 3 33 0
21 -2 40 -7 43 -10z m45 1 c4 -10 0 -12 -14 -9 -10 3 -16 9 -13 14 8 13 21 11
27 -5z m-4046 -2 c-3 -3 -12 -4 -19 -1 -8 3 -5 6 6 6 11 1 17 -2 13 -5z m-131
-28 c0 -21 -3 -23 -20 -14 -19 10 -19 11 -1 24 10 8 19 14 20 14 1 0 1 -11 1
-24z m-876 10 c0 -3 -4 -8 -10 -11 -5 -3 -10 -1 -10 4 0 6 5 11 10 11 6 0 10
-2 10 -4z m1155 -11 c-16 -7 -24 -14 -16 -14 8 -1 12 -4 8 -7 -3 -3 -16 2 -29
11 -14 11 -16 15 -6 12 10 -4 20 -2 23 3 4 6 16 10 28 10 19 -1 18 -3 -8 -15z
m3928 -5 c-3 -12 -8 -19 -11 -16 -5 6 5 36 12 36 2 0 2 -9 -1 -20z m-214 1
c12 -8 9 -11 -12 -16 -14 -4 -32 -5 -39 -2 -7 3 1 6 17 6 23 1 27 4 15 11 -8
5 -10 10 -5 10 6 0 17 -4 24 -9z m187 -32 c1 -17 0 -28 -3 -25 -3 3 -7 19 -8
36 -2 17 0 28 3 25 3 -3 7 -19 8 -36z m-260 12 c-8 -13 35 -21 55 -10 23 12
26 12 26 -4 0 -9 -12 -12 -41 -9 -23 2 -52 4 -66 4 l-25 0 25 14 c30 16 33 17
26 5z m-3683 -8 c-7 -2 -19 -2 -25 0 -7 3 -2 5 12 5 14 0 19 -2 13 -5z m-309
-12 c4 -5 -2 -7 -11 -5 -10 2 -34 -10 -53 -26 -29 -25 -31 -30 -15 -31 17 0
17 -2 -4 -10 -13 -5 -26 -7 -29 -4 -3 3 0 5 7 5 7 0 9 5 6 10 -5 8 -12 7 -23
-2 -15 -12 -16 -11 -4 4 8 10 23 20 35 24 11 3 30 15 41 25 21 21 42 24 50 10z
m240 -23 c-3 -4 -12 -4 -21 -1 -11 5 -14 3 -8 -6 6 -11 3 -11 -16 -1 -13 7
-25 14 -26 15 -2 1 15 1 36 1 22 0 37 -4 35 -8z m-274 -18 c0 -5 -5 -10 -11
-10 -5 0 -7 5 -4 10 3 6 8 10 11 10 2 0 4 -4 4 -10z m177 4 c-3 -3 -12 -4 -19
-1 -8 3 -5 6 6 6 11 1 17 -2 13 -5z m33 2 c0 -2 -8 -10 -17 -17 -16 -13 -17
-12 -4 4 13 16 21 21 21 13z m-190 -31 c-7 -8 -18 -15 -24 -15 -6 0 -2 7 8 15
25 19 32 19 16 0z m140 5 c8 -5 11 -10 5 -10 -5 0 -17 5 -25 10 -8 5 -10 10
-5 10 6 0 17 -5 25 -10z m-27 -21 c5 -3 -19 -20 -53 -38 -58 -29 -92 -42 -61
-22 8 5 16 17 17 26 3 22 12 30 21 21 4 -4 1 -11 -7 -16 -9 -6 -10 -10 -3 -10
20 0 43 12 38 20 -3 4 3 7 13 6 12 -1 16 5 14 19 -2 12 0 16 5 10 4 -5 12 -13
16 -16z m3794 -1 c-3 -8 -6 -5 -6 6 -1 11 2 17 5 13 3 -3 4 -12 1 -19z m303 2
c0 -5 -7 -10 -16 -10 -8 0 -12 5 -9 10 3 6 10 10 16 10 5 0 9 -4 9 -10z
m-4357 -15 c-3 -9 -8 -14 -10 -11 -3 3 -2 9 2 15 9 16 15 13 8 -4z m112 5 c3
-5 1 -10 -4 -10 -6 0 -11 5 -11 10 0 6 2 10 4 10 3 0 8 -4 11 -10z m-788 -32
c-3 -7 -5 -2 -5 12 0 14 2 19 5 13 2 -7 2 -19 0 -25z m290 10 c-3 -8 -6 -5 -6
6 -1 11 2 17 5 13 3 -3 4 -12 1 -19z m4427 -6 c-5 -4 -15 -18 -22 -32 l-12
-25 6 25 c8 30 24 53 33 45 3 -3 1 -9 -5 -13z m-4053 -9 c13 -16 12 -17 -3 -4
-15 11 -21 11 -33 1 -13 -11 -13 -15 -3 -21 10 -7 10 -9 -2 -10 -8 -1 -21 -1
-29 0 -8 2 -10 -2 -5 -10 5 -8 3 -10 -5 -4 -9 5 -3 16 21 36 39 34 42 34 59
12z m139 2 c-14 -8 -29 -14 -35 -14 -5 0 1 6 15 14 14 8 30 14 35 14 6 0 -1
-6 -15 -14z m4242 -7 c-5 -7 -12 -24 -15 -38 -4 -22 -4 -22 -6 6 0 16 4 35 11
42 15 15 24 6 10 -10z m-292 7 c0 -3 -9 -14 -20 -25 -13 -13 -20 -15 -20 -7 0
7 5 18 12 25 12 12 28 16 28 7z m-4089 -32 c13 -16 12 -17 -3 -4 -10 7 -18 15
-18 17 0 8 8 3 21 -13z m138 -6 c-22 -17 -79 -45 -79 -38 0 4 -10 13 -22 20
-22 11 -6 8 29 -6 11 -4 14 -3 9 5 -5 8 -1 10 10 5 12 -4 15 -3 10 5 -4 8 -2
10 7 6 8 -3 18 0 22 6 4 6 10 9 13 6 3 -3 3 -7 1 -9z m4214 -33 c5 -30 -8 -20
-18 15 -4 15 -3 21 3 17 5 -3 12 -17 15 -32z m-5013 16 c0 -5 -5 -10 -11 -10
-5 0 -7 5 -4 10 3 6 8 10 11 10 2 0 4 -4 4 -10z m556 -15 c-10 -8 -15 -19 -10
-26 5 -8 3 -10 -5 -4 -8 4 -26 -2 -44 -14 -20 -14 -15 -7 13 18 25 23 50 41
55 41 6 -1 2 -7 -9 -15z m134 -5 c0 -5 -2 -10 -4 -10 -3 0 -8 5 -11 10 -3 6
-1 10 4 10 6 0 11 -4 11 -10z m-110 -40 c-14 -9 -7 -14 13 -11 5 1 6 -3 2 -8
-6 -11 -35 -4 -35 8 0 11 23 31 29 25 3 -3 -1 -9 -9 -14z m-44 -9 c-3 -5 1
-12 10 -15 9 -4 14 -9 11 -13 -9 -8 -38 17 -31 28 3 5 7 9 10 9 3 0 3 -4 0 -9z
m-310 -25 c2 -14 -20 -16 -33 -2 -4 4 -1 6 7 4 9 -2 14 3 12 12 -2 8 0 11 4 7
4 -4 9 -14 10 -21z m44 20 c0 -2 -8 -10 -17 -17 -16 -13 -17 -12 -4 4 13 16
21 21 21 13z m370 -1 c0 -12 -80 -56 -90 -50 -6 4 -17 2 -24 -4 -11 -9 -13 -6
-13 15 0 14 2 22 6 16 14 -22 47 -21 81 3 38 26 40 27 40 20z m-673 -27 c-3
-8 -6 -5 -6 6 -1 11 2 17 5 13 3 -3 4 -12 1 -19z m509 -5 c-7 -7 -26 7 -26 19
0 6 6 6 15 -2 9 -7 13 -15 11 -17z m-469 -30 c-3 -10 -5 -4 -5 12 0 17 2 24 5
18 2 -7 2 -21 0 -30z m429 18 c0 -11 -4 -19 -9 -18 -5 1 -12 -4 -14 -10 -3 -7
1 -13 8 -13 8 0 6 -7 -6 -20 -19 -20 -41 -28 -30 -10 3 6 1 10 -5 10 -8 0 44
74 55 80 1 0 1 -9 1 -19z m64 -53 c0 -13 -9 -10 -33 13 l-22 21 28 -13 c15 -7
27 -16 27 -21z m49 29 c-2 -1 -13 -9 -24 -17 -19 -14 -19 -14 -6 3 7 9 18 17
24 17 6 0 8 -1 6 -3z m-372 -24 c0 -9 -4 -10 -12 -3 -17 14 -27 0 -13 -19 8
-10 4 -9 -10 3 -22 19 -31 11 -12 -12 5 -7 2 -6 -7 2 -12 11 -14 18 -5 28 14
18 59 18 59 1z m4750 -5 c-3 -8 -6 -5 -6 6 -1 11 2 17 5 13 3 -3 4 -12 1 -19z
m50 0 c-3 -8 -6 -5 -6 6 -1 11 2 17 5 13 3 -3 4 -12 1 -19z m-4517 -8 c0 -5
-2 -10 -4 -10 -3 0 -8 5 -11 10 -3 6 -1 10 4 10 6 0 11 -4 11 -10z m4167 -12
c-3 -8 -6 -5 -6 6 -1 11 2 17 5 13 3 -3 4 -12 1 -19z m-4280 -16 c-12 -13 -13
-22 -5 -35 5 -10 7 -21 4 -24 -3 -4 -6 -1 -6 6 0 7 -4 10 -9 6 -5 -3 -12 -1
-16 5 -3 5 -1 10 6 10 7 0 9 3 6 7 -7 6 20 43 31 43 3 0 -2 -8 -11 -18z m83 3
c-7 -8 -17 -15 -22 -15 -11 0 14 29 26 30 5 0 3 -7 -4 -15z m4237 -7 c-3 -8
-6 -5 -6 6 -1 11 2 17 5 13 3 -3 4 -12 1 -19z m280 -30 c-2 -13 -4 -5 -4 17
-1 22 1 32 4 23 2 -10 2 -28 0 -40z m-289 -43 c0 -11 -6 -2 -13 20 -7 22 -10
45 -6 50 6 10 19 -36 19 -70z m-4616 33 c-7 -7 -12 -8 -12 -2 0 14 12 26 19
19 2 -3 -1 -11 -7 -17z m343 2 c3 -6 -1 -7 -9 -4 -18 7 -21 14 -7 14 6 0 13
-4 16 -10z m-299 -28 c-18 -16 -18 -16 -6 6 6 13 14 21 18 18 3 -4 -2 -14 -12
-24z m220 -14 c-7 -12 -17 -16 -31 -11 -18 5 -19 4 -5 -13 14 -18 14 -18 -2
-5 -19 14 -23 5 -9 -18 8 -13 12 -13 28 -1 10 8 5 0 -11 -18 -28 -31 -50 -35
-40 -8 3 8 1 17 -5 21 -6 3 -12 1 -12 -4 -1 -6 -2 -17 -3 -23 -1 -7 3 -16 9
-20 6 -5 6 -8 -2 -8 -6 0 -15 5 -18 10 -9 15 -25 2 -19 -15 4 -8 11 -12 17 -8
6 4 7 1 2 -7 -6 -10 -11 -9 -21 5 -11 15 -9 22 13 51 22 29 28 32 41 22 13
-11 15 -10 9 6 -11 27 39 91 57 74 10 -10 11 -17 2 -30z m4621 0 c-3 -8 -6 -5
-6 6 -1 11 2 17 5 13 3 -3 4 -12 1 -19z m-293 -3 c3 -8 1 -15 -4 -15 -6 0 -10
7 -10 15 0 8 2 15 4 15 2 0 6 -7 10 -15z m-4309 -15 c3 -5 1 -10 -4 -10 -6 0
-11 5 -11 10 0 6 2 10 4 10 3 0 8 -4 11 -10z m-364 -23 c-10 -9 -11 -8 -5 6 3
10 9 15 12 12 3 -3 0 -11 -7 -18z m83 15 c3 -5 -1 -9 -9 -9 -8 0 -12 4 -9 9 3
4 7 8 9 8 2 0 6 -4 9 -8z m4903 -34 c-3 -7 -5 -2 -5 12 0 14 2 19 5 13 2 -7 2
-19 0 -25z m-4959 -13 c-2 -15 -6 -21 -11 -16 -6 6 -7 17 -4 25 9 24 17 19 15
-9z m24 -7 c-7 -7 -12 -8 -12 -2 0 14 12 26 19 19 2 -3 -1 -11 -7 -17z m4928
-8 c0 -5 -4 -10 -10 -10 -5 0 -10 5 -10 10 0 6 5 10 10 10 6 0 10 -4 10 -10z
m-4976 -43 c4 4 4 0 1 -10 -6 -14 -9 -14 -21 -2 -18 17 -18 31 -1 16 8 -6 17
-8 21 -4z m203 6 c-4 -3 -1 -13 6 -22 10 -14 10 -14 -4 -4 -16 13 -29 8 -29
-9 0 -5 5 -6 11 -2 27 16 -13 -35 -68 -86 -32 -30 -44 -39 -28 -20 17 19 34
38 38 41 5 3 8 9 8 13 -1 3 -1 12 0 19 0 9 2 9 6 0 3 -10 8 -9 19 2 9 8 12 20
9 26 -6 9 21 49 33 49 3 0 2 -3 -1 -7z m4780 -45 c-3 -8 -6 -5 -6 6 -1 11 2
17 5 13 3 -3 4 -12 1 -19z m-5013 -14 c3 -8 2 -12 -4 -9 -6 3 -10 10 -10 16 0
14 7 11 14 -7z m4993 -61 c-3 -10 -5 -4 -5 12 0 17 2 24 5 18 2 -7 2 -21 0
-30z m-340 -145 c-3 -8 -6 -5 -6 6 -1 11 2 17 5 13 3 -3 4 -12 1 -19z m363
-40 c0 -3 -9 -4 -19 -1 -16 4 -17 8 -8 18 11 12 26 3 27 -17z m-107 -5 c-7 -2
-21 -2 -30 0 -10 3 -4 5 12 5 17 0 24 -2 18 -5z m33 -12 c-4 -5 0 -12 6 -15 7
-3 3 -3 -10 0 -13 3 -30 0 -38 -7 -8 -6 -17 -9 -21 -5 -3 3 0 7 8 7 8 1 1 5
-16 9 -27 7 -26 8 13 7 23 0 45 3 49 6 9 10 15 8 9 -2z m49 -1 c-3 -5 -11 -10
-16 -10 -6 0 -7 5 -4 10 3 6 11 10 16 10 6 0 7 -4 4 -10z m-3502 -27 c-7 -2
-19 -2 -25 0 -7 3 -2 5 12 5 14 0 19 -2 13 -5z m-63 -13 c-8 -5 -19 -10 -25
-10 -5 0 -3 5 5 10 8 5 20 10 25 10 6 0 3 -5 -5 -10z m3430 0 c-20 -13 -33
-13 -25 0 3 6 14 10 23 10 15 0 15 -2 2 -10z m-3456 -39 c-5 -6 -34 20 -34 30
0 5 8 1 18 -8 10 -10 17 -20 16 -22z m86 35 c0 -2 -9 -6 -20 -9 -11 -3 -18 -1
-14 4 5 9 34 13 34 5z m3197 -12 c-3 -3 -12 -4 -19 -1 -8 3 -5 6 6 6 11 1 17
-2 13 -5z m-3312 -24 c8 -13 -5 -13 -25 0 -13 8 -13 10 2 10 9 0 20 -4 23 -10z
m3352 4 c-3 -3 -12 -4 -19 -1 -8 3 -5 6 6 6 11 1 17 -2 13 -5z m-3474 -27 c7
4 4 9 -9 14 -12 5 -14 8 -4 8 21 0 59 -17 41 -18 -8 -1 -25 -11 -38 -23 -22
-20 -29 -16 -24 15 1 5 -8 6 -19 2 -12 -4 -20 -2 -20 5 0 6 4 9 9 5 5 -3 12
-1 16 5 4 6 12 5 21 -5 9 -8 21 -12 27 -8z m77 -2 c0 -2 -6 -5 -13 -8 -8 -3
-14 1 -14 8 0 7 6 11 14 8 7 -3 13 -6 13 -8z m-206 -32 c-10 -8 -29 -11 -41
-8 -12 3 -25 1 -28 -5 -3 -5 -11 -10 -18 -10 -6 0 -2 6 9 14 10 8 30 13 44 10
20 -5 22 -3 10 6 -12 9 -10 10 9 5 17 -5 22 -4 16 5 -6 9 -4 11 5 5 10 -6 9
-11 -6 -22z m161 17 c-3 -5 -11 -10 -16 -10 -6 0 -7 5 -4 10 3 6 11 10 16 10
6 0 7 -4 4 -10z m-101 -35 c11 -8 15 -15 10 -15 -6 0 -19 7 -30 15 -10 8 -14
14 -9 14 6 0 19 -6 29 -14z m31 5 c3 -6 -1 -7 -9 -4 -18 7 -21 14 -7 14 6 0
13 -4 16 -10z m-200 -20 c-3 -5 -14 -10 -23 -10 -15 0 -15 2 -2 10 20 13 33
13 25 0z m75 -20 c-12 -12 -18 -26 -15 -33 4 -7 -2 -3 -12 9 -10 11 -25 23
-33 27 -12 4 -11 6 2 6 9 1 22 -7 27 -16 9 -16 10 -16 11 -1 0 9 6 19 13 21
25 10 27 7 7 -13z m48 3 c-10 -2 -18 -8 -18 -13 0 -4 -8 -11 -17 -14 -15 -6
-15 -4 2 14 10 11 25 19 34 19 13 -1 13 -2 -1 -6z m-108 -23 c0 -5 -4 -10 -10
-10 -5 0 -10 5 -10 10 0 6 5 10 10 10 6 0 10 -4 10 -10z m-134 -17 c-3 -20
-22 -28 -31 -14 -4 7 0 8 10 5 9 -4 15 -3 14 2 -2 13 0 24 5 24 2 0 3 -8 2
-17z m117 -17 c-4 -5 1 -7 11 -3 10 4 15 3 11 -3 -8 -13 -18 -13 -39 3 -16 12
-16 13 3 13 11 0 17 -5 14 -10z m-152 -36 c21 -17 22 -19 6 -20 -10 0 -16 4
-12 9 7 12 -31 25 -46 15 -9 -5 -6 -11 7 -21 17 -14 16 -14 -13 -8 -21 4 -33
3 -33 -4 0 -6 -7 -11 -15 -11 -8 0 -12 -6 -9 -14 4 -11 0 -13 -18 -10 -21 5
-22 4 -6 -9 16 -12 15 -14 -11 -14 -26 0 -28 2 -14 16 27 26 117 90 129 91 7
0 22 -9 35 -20z m134 11 c3 -5 2 -12 -3 -15 -5 -3 -9 1 -9 9 0 17 3 19 12 6z
m-79 -34 c14 -3 13 -24 -2 -24 -7 0 -11 4 -8 8 2 4 0 10 -6 14 -5 3 -10 12
-10 18 0 8 3 8 9 -1 4 -8 12 -14 17 -15z m-66 -31 c0 -3 -4 -8 -10 -11 -5 -3
-10 -1 -10 4 0 6 5 11 10 11 6 0 10 -2 10 -4z m-45 -26 c32 -20 32 -20 50 0
10 11 22 20 27 20 5 0 -3 -11 -19 -24 -25 -22 -30 -23 -55 -10 -31 16 -62 20
-38 4 8 -5 10 -10 4 -10 -16 0 -23 10 -17 26 7 18 10 18 48 -6z m-157 -52 c-7
-13 -11 -27 -10 -32 2 -5 -4 -4 -13 4 -13 11 -19 10 -38 -6 -19 -17 -19 -15 2
9 18 20 27 24 33 15 7 -12 9 -9 7 8 -1 6 21 23 29 24 1 0 -3 -10 -10 -22z
m132 -17 c-24 -21 -50 -36 -57 -34 -9 4 -11 -1 -7 -13 5 -15 4 -16 -4 -4 -12
16 -5 33 11 27 7 -2 29 11 50 29 20 19 40 34 45 34 4 0 -13 -18 -38 -39z m-93
-28 c-4 -3 -2 -11 3 -18 7 -8 -14 -37 -71 -96 -45 -46 -93 -99 -107 -117 -15
-20 -31 -31 -40 -27 -10 3 -12 0 -9 -10 4 -8 1 -17 -5 -21 -7 -5 -8 -2 -3 6 6
10 4 12 -8 7 -9 -3 -19 -1 -23 5 -5 7 -2 8 6 3 8 -5 11 -3 8 6 -3 8 -11 13
-17 12 -6 -2 -11 2 -11 7 0 13 17 13 25 1 11 -19 53 -4 84 31 36 41 41 60 9
32 l-23 -19 18 22 c11 12 25 19 31 17 18 -7 48 40 34 54 -17 17 1 32 31 27 23
-4 32 0 45 20 10 15 12 26 5 30 -10 7 6 35 19 35 3 0 2 -3 -1 -7z m-112 -23
c4 -6 3 -10 -2 -9 -21 4 -25 -2 -8 -14 12 -10 15 -16 6 -21 -6 -4 -14 0 -17 8
-3 9 -10 13 -15 10 -5 -3 -6 -10 -3 -16 4 -7 2 -8 -4 -4 -9 5 -7 14 4 32 17
26 29 30 39 14z m-79 -102 c-1 -12 -8 -23 -15 -24 -6 -1 -7 0 -1 3 5 2 7 9 4
15 -3 5 -14 2 -25 -8 -18 -16 -19 -16 -13 -1 6 16 18 21 38 18 5 -1 6 5 2 14
-3 9 -2 13 4 10 5 -3 8 -16 6 -27z m-83 -59 c-6 -6 -10 -17 -9 -23 2 -6 1 -8
-1 -3 -3 4 -10 4 -16 0 -7 -3 -3 3 7 15 11 12 22 22 25 22 3 0 0 -5 -6 -11z
m-51 -81 c-7 -7 -12 -8 -12 -2 0 14 12 26 19 19 2 -3 -1 -11 -7 -17z m38 -2
c0 -3 -4 -8 -10 -11 -5 -3 -10 -1 -10 4 0 6 5 11 10 11 6 0 10 -2 10 -4z m-70
-30 c0 -2 -8 -10 -17 -17 -16 -13 -17 -12 -4 4 13 16 21 21 21 13z m70 -11 c0
18 1 18 16 -1 15 -19 16 -19 9 1 -5 15 -3 17 6 8 15 -15 3 -34 -18 -26 -12 5
-15 2 -10 -10 9 -25 4 -21 -23 16 -22 30 -22 31 -2 13 21 -18 22 -18 22 -1z
m-24 -38 c9 -17 11 -26 4 -22 -7 4 -10 1 -8 -10 2 -10 -3 -20 -9 -22 -7 -3
-13 0 -13 7 0 6 -5 8 -11 4 -8 -4 -8 0 0 15 8 14 9 27 2 39 -8 14 -6 19 5 19
8 0 22 -14 30 -30z m-83 -4 c-6 -17 -5 -17 13 -1 19 16 20 16 20 -1 0 -10 -6
-17 -12 -14 -6 2 -18 -9 -25 -26 -8 -18 -20 -29 -32 -28 -16 1 -15 4 7 20 14
10 26 23 26 29 0 6 -7 4 -17 -3 -14 -12 -14 -10 1 14 21 31 28 35 19 10z
m5634 -3 c98 -14 171 -37 201 -63 38 -35 150 -211 208 -328 103 -206 165 -433
186 -686 10 -113 9 -144 -1 -157 -22 -26 -193 -105 -273 -125 -42 -11 -115
-23 -163 -27 l-86 -7 8 54 c14 94 8 376 -11 479 -51 290 -150 531 -311 755
-36 50 -61 91 -57 93 18 6 131 20 174 21 26 0 82 -4 125 -9z m-3757 -11 c27
-6 50 -13 50 -17 0 -3 -8 -15 -19 -26 -79 -87 -228 -363 -276 -511 -75 -229
-100 -406 -93 -653 l6 -175 -97 6 c-113 6 -253 48 -353 106 l-63 36 -3 85 c-3
99 19 263 54 405 53 210 165 450 289 617 69 94 81 101 216 127 64 13 230 13
289 0z m-1850 -35 c0 -8 -5 -12 -10 -9 -6 4 -8 11 -5 16 9 14 15 11 15 -7z
m-28 -46 c-7 -7 -12 -8 -12 -2 0 14 12 26 19 19 2 -3 -1 -11 -7 -17z m-29 -8
c4 7 5 7 4 0 -2 -7 -6 -11 -11 -10 -5 1 -13 -4 -17 -12 -7 -10 -11 -10 -17 -1
-5 8 -12 2 -21 -18 -7 -16 -16 -29 -21 -29 -5 0 1 18 13 40 12 22 24 35 25 30
2 -6 8 -10 14 -10 6 0 7 8 4 18 -6 16 -5 16 8 -1 9 -11 16 -14 19 -7z m67 12
c0 -5 -6 -16 -13 -27 -11 -14 -16 -15 -22 -5 -5 8 -4 11 2 7 6 -4 13 2 16 13
5 20 17 28 17 12z m-74 -68 c-5 -18 -3 -24 5 -18 8 5 9 3 4 -5 -11 -19 -28 3
-20 28 9 30 18 26 11 -5z m39 6 c-3 -5 -12 -10 -18 -10 -7 0 -6 4 3 10 19 12
23 12 15 0z m-75 -14 c0 -3 -4 -8 -10 -11 -5 -3 -10 -1 -10 4 0 6 5 11 10 11
6 0 10 -2 10 -4z m2 -80 c7 5 8 2 4 -5 -6 -9 -12 -8 -26 4 -14 13 -19 13 -24
3 -3 -7 -3 -3 -1 9 3 12 1 24 -5 28 -5 3 -10 11 -10 18 0 6 11 -5 26 -26 14
-21 30 -35 36 -31z m34 42 c4 4 3 0 -4 -10 -13 -16 -35 -18 -49 -4 -4 4 -1 6
7 4 9 -2 14 3 12 11 -2 11 0 12 11 3 8 -7 18 -8 23 -4z m-116 -63 c-12 -13
-19 -28 -15 -34 3 -6 1 -11 -5 -11 -6 0 -9 12 -6 28 2 15 5 32 5 37 1 6 5 4
10 -4 7 -11 11 -8 16 10 5 15 10 19 13 11 2 -7 -6 -24 -18 -37z m53 -15 c4 0
5 5 1 12 -5 7 -3 8 5 3 9 -5 10 -10 2 -18 -8 -8 -15 -6 -26 6 -8 9 -10 12 -3
7 7 -6 16 -10 21 -10z m-23 -45 c-7 -9 -15 -13 -18 -10 -3 2 1 11 8 20 7 9 15
13 18 10 3 -2 -1 -11 -8 -20z m-85 -25 c0 -5 9 -16 20 -25 11 -9 15 -14 9 -11
-12 6 -80 -91 -71 -100 3 -3 11 4 17 16 6 12 14 19 17 16 3 -3 12 2 20 12 13
15 13 15 3 -6 -6 -12 -16 -20 -22 -16 -6 4 -8 -2 -3 -17 4 -17 3 -20 -3 -10
-11 15 -24 1 -19 -21 2 -7 2 -10 0 -5 -3 4 -8 5 -12 3 -4 -3 -13 0 -21 5 -13
8 -13 10 0 18 8 6 11 14 6 18 -4 4 -14 -1 -22 -11 -8 -11 -14 -15 -14 -10 0 6
7 19 15 30 13 16 16 17 25 4 5 -8 10 -10 10 -4 0 5 -6 16 -12 23 -11 11 -10
12 1 6 11 -6 13 -4 8 11 -7 18 -7 18 7 1 14 -18 15 -17 31 13 13 24 14 35 5
44 -8 8 -10 7 -5 -5 8 -20 -20 -46 -31 -28 -4 8 -3 9 4 5 8 -5 12 2 12 18 0
14 5 26 11 26 5 0 7 6 3 13 -4 7 -3 9 2 4 5 -5 9 -13 9 -17z m55 10 c0 -5 -5
-10 -11 -10 -5 0 -7 5 -4 10 3 6 8 10 11 10 2 0 4 -4 4 -10z m-153 -177 c-4
-3 0 -14 8 -23 16 -18 11 -50 -8 -50 -7 0 -7 4 1 12 14 14 16 28 4 28 -5 0
-14 -10 -19 -22 -10 -22 -10 -22 -10 4 0 17 4 25 10 21 6 -4 8 0 4 9 -5 15 0
28 11 28 3 0 2 -3 -1 -7z m-31 -100 c-9 27 2 20 20 -14 10 -21 11 -29 3 -23
-9 5 -11 2 -6 -9 3 -9 3 -16 -1 -16 -20 3 -33 -2 -27 -11 3 -5 1 -18 -4 -27
-9 -15 -11 -14 -12 12 -1 17 0 35 2 40 1 6 3 22 2 37 0 26 1 27 14 10 14 -16
14 -16 9 1z m53 0 c-7 -10 -14 -19 -15 -21 -1 -2 -4 4 -8 13 -3 9 -2 13 3 10
5 -3 12 -1 16 5 3 5 9 10 12 10 3 0 -1 -8 -8 -17z m-98 -69 c-5 -16 -10 -21
-10 -12 -1 18 10 51 15 45 2 -1 -1 -16 -5 -33z m6 -56 c-3 -8 -6 -5 -6 6 -1
11 2 17 5 13 3 -3 4 -12 1 -19z m-24 -15 c-7 -3 -9 -12 -6 -21 6 -14 5 -15 -9
-2 -9 8 -12 17 -7 18 5 2 7 8 4 13 -4 5 2 6 11 2 10 -4 13 -8 7 -10z m30 -30
c-3 -7 -6 -13 -8 -13 -2 0 -5 6 -8 13 -3 8 1 14 8 14 7 0 11 -6 8 -14z m-59
-9 c3 -8 2 -12 -4 -9 -18 11 -10 -12 10 -30 11 -10 20 -23 20 -29 0 -6 -5 -4
-10 4 -8 13 -10 13 -10 1 0 -11 -4 -10 -14 4 -11 16 -13 33 -7 68 2 12 8 8 15
-9z m-57 -136 c-3 -7 -5 -2 -5 12 0 14 2 19 5 13 2 -7 2 -19 0 -25z m41 -24
c-10 -22 -28 -24 -28 -3 0 6 5 7 12 3 7 -5 9 0 6 14 -4 14 -2 19 8 15 10 -4
10 -10 2 -29z m-35 -24 c3 -11 1 -18 -4 -14 -5 3 -9 12 -9 20 0 20 7 17 13 -6z
m-12 -27 c13 -14 19 -23 12 -20 -6 4 -14 1 -16 -5 -3 -7 -6 -4 -6 8 -1 11 -6
25 -13 32 -7 7 -10 12 -7 12 3 0 16 -12 30 -27z m-21 -14 c0 -6 -4 -7 -10 -4
-5 3 -10 1 -10 -5 0 -6 7 -13 15 -16 8 -4 15 -10 15 -15 0 -13 -28 1 -34 17
-7 18 4 45 15 38 5 -3 9 -10 9 -15z m-42 -74 c-6 -14 -13 -23 -15 -21 -5 5 15
46 22 46 3 0 -1 -11 -7 -25z m52 5 c0 -5 -5 -10 -11 -10 -5 0 -7 5 -4 10 3 6
8 10 11 10 2 0 4 -4 4 -10z m-30 -30 c0 -5 -5 -10 -11 -10 -5 0 -7 5 -4 10 3
6 8 10 11 10 2 0 4 -4 4 -10z m-30 -43 c0 -12 -3 -32 -6 -45 -6 -21 -7 -21
-19 -5 -7 10 -11 22 -8 26 3 5 9 3 14 -4 7 -11 9 -10 9 3 0 9 -4 19 -10 23 -5
3 -7 12 -4 20 8 21 24 8 24 -18z m27 -9 c-3 -8 -6 -5 -6 6 -1 11 2 17 5 13 3
-3 4 -12 1 -19z m-16 -49 c-5 -13 -10 -19 -10 -12 -1 15 10 45 15 40 3 -2 0
-15 -5 -28z m-48 -2 c3 -8 2 -20 -3 -26 -5 -9 -7 -4 -7 13 0 29 2 32 10 13z
m21 -77 c-18 -52 -27 -65 -21 -30 5 28 29 82 33 77 2 -1 -4 -23 -12 -47z m-35
-36 c-5 -6 -5 -15 0 -20 5 -5 2 -22 -6 -39 l-13 -30 5 35 6 35 -16 -27 c-18
-31 -21 -33 -31 -16 -5 7 -3 8 6 3 9 -6 10 -1 5 16 -4 17 -3 20 3 10 8 -11 11
-9 17 8 3 11 3 26 -1 32 -5 8 -3 9 6 4 10 -6 12 -1 7 26 l-6 34 14 -30 c8 -18
10 -34 4 -41z m-33 -110 c-4 -9 -9 -15 -11 -12 -3 3 -3 13 1 22 4 9 9 15 11
12 3 -3 3 -13 -1 -22z m0 -53 c2 -8 1 -8 -3 0 -4 8 -8 7 -15 -2 -8 -11 -9 -11
-5 1 2 8 -3 21 -12 29 -12 9 -9 9 8 -1 14 -8 26 -20 27 -27z m-43 -56 c4 -19
5 -19 6 1 0 12 8 24 16 28 12 4 13 2 6 -13 -6 -10 -7 -21 -4 -25 3 -3 1 -6 -6
-6 -8 0 -11 -7 -7 -17 4 -11 -1 -8 -13 6 l-19 25 -5 -25 c-4 -23 -4 -23 -6 3
0 15 4 30 9 33 6 4 7 12 4 18 -5 8 -4 9 4 2 5 -5 12 -19 15 -30z m-8 -66 c-5
-14 -4 -19 4 -15 7 5 9 1 5 -9 -10 -24 -27 -1 -19 24 3 12 9 21 11 21 3 0 2
-10 -1 -21z m-42 -59 c-3 -11 -9 -17 -14 -15 -10 7 -1 35 11 35 5 0 6 -9 3
-20z m37 -11 c0 -3 -6 -6 -14 -6 -8 0 -11 8 -8 20 4 14 7 16 13 5 5 -7 9 -16
9 -19z m-63 -81 c-3 -8 -6 -5 -6 6 -1 11 2 17 5 13 3 -3 4 -12 1 -19z m32 -28
c0 -9 -4 -8 -9 5 -5 11 -9 27 -9 35 0 9 4 8 9 -5 5 -11 9 -27 9 -35z m-39 5
c14 -19 14 -19 -2 -6 -10 7 -18 18 -18 24 0 6 1 8 3 6 1 -2 9 -13 17 -24z
m-15 -52 c-8 -15 -12 -30 -9 -35 3 -4 0 -8 -5 -8 -13 0 -13 0 0 39 6 17 15 31
19 31 5 0 3 -12 -5 -27z m18 -46 c3 -8 -1 -14 -8 -14 -7 0 -11 6 -8 14 3 7 6
13 8 13 2 0 5 -6 8 -13z m-39 -42 c-4 -8 -11 -15 -16 -15 -6 0 -5 6 2 15 7 8
14 15 16 15 2 0 1 -7 -2 -15z m-9 -88 c5 -18 3 -27 -5 -27 -6 0 -8 5 -5 10 4
6 -1 24 -9 42 -20 39 -20 49 -2 22 8 -11 18 -33 21 -47z m-30 13 c3 -5 1 -10
-4 -10 -6 0 -11 5 -11 10 0 6 2 10 4 10 3 0 8 -4 11 -10z m-3 -52 c-7 -7 -12
-8 -12 -2 0 14 12 26 19 19 2 -3 -1 -11 -7 -17z m-28 -25 c-4 -16 -13 -39 -21
-53 -9 -15 -12 -17 -8 -5 4 11 11 35 17 53 11 39 21 43 12 5z m40 -8 c-4 -8
-10 -12 -15 -9 -5 3 -9 0 -9 -7 0 -7 -3 -9 -7 -5 -5 4 1 14 11 22 25 18 27 18
20 -1z m-16 -56 c-6 -16 -12 -28 -14 -26 -5 5 13 57 20 57 3 0 0 -14 -6 -31z
m-39 -30 c-19 -12 -29 -11 -29 2 0 5 5 7 10 4 6 -3 13 2 17 11 5 13 8 14 11 5
2 -7 -2 -17 -9 -22z m21 -20 c0 -5 -5 -7 -11 -3 -8 4 -9 -1 -4 -17 5 -19 4
-21 -4 -9 -9 12 -11 13 -11 1 0 -8 -3 -12 -6 -9 -8 8 14 48 26 48 6 0 10 -5
10 -11z m-50 -54 c0 -8 -2 -15 -4 -15 -2 0 -6 7 -10 15 -3 8 -1 15 4 15 6 0
10 -7 10 -15z m-16 -94 c1 -22 -3 -39 -9 -38 -5 1 -10 -10 -10 -25 -1 -15 -4
-30 -7 -34 -10 -9 -2 58 11 88 6 15 8 36 4 45 -3 10 -2 15 2 10 5 -4 9 -25 9
-46z m-44 -71 c0 -5 -5 -10 -11 -10 -5 0 -7 5 -4 10 3 6 8 10 11 10 2 0 4 -4
4 -10z m-13 -85 c6 -14 8 -25 4 -25 -4 0 -13 11 -19 25 -6 14 -8 25 -4 25 4 0
12 -11 19 -25z m-7 -69 c0 -5 -7 -1 -15 10 -14 19 -14 19 -15 -3 0 -12 5 -25
10 -28 6 -3 10 -11 10 -17 0 -6 -9 -1 -19 11 -17 19 -18 27 -8 48 10 23 12 24
24 7 7 -10 13 -22 13 -28z m-30 -40 c0 -3 -4 -8 -10 -11 -5 -3 -10 -1 -10 4 0
6 5 11 10 11 6 0 10 -2 10 -4z m-20 -52 c0 11 3 17 6 13 4 -3 4 -14 0 -23 -5
-13 -9 -14 -21 -4 -8 7 -15 17 -15 23 0 6 7 2 15 -9 14 -19 14 -19 15 0z m-10
-54 c5 8 10 11 10 5 0 -5 -4 -16 -9 -24 -7 -11 -11 -10 -20 7 -6 11 -11 27
-10 34 0 7 5 2 10 -12 8 -20 12 -22 19 -10z m-29 -57 c-8 -15 -10 -15 -11 -2
0 17 10 32 18 25 2 -3 -1 -13 -7 -23z m-24 -25 c-3 -8 -6 -5 -6 6 -1 11 2 17
5 13 3 -3 4 -12 1 -19z m25 -21 c-7 -8 -8 -18 -4 -22 4 -5 1 -4 -7 0 -11 6
-13 4 -8 -11 7 -18 7 -18 -8 0 -8 11 -15 25 -15 30 0 6 4 6 8 -1 6 -9 12 -7
22 7 8 11 16 17 18 15 3 -3 0 -11 -6 -18z m-53 -111 c-9 -4 -22 -18 -27 -30
-8 -16 -11 -17 -11 -4 -1 9 4 20 10 23 6 4 8 13 5 21 -3 8 0 11 10 7 12 -4 15
0 14 18 -4 40 2 46 9 9 5 -27 3 -37 -10 -44z m-13 -68 c4 -7 3 -8 -4 -4 -7 4
-12 0 -12 -10 0 -10 -3 -15 -6 -11 -7 6 2 37 10 37 3 0 8 -5 12 -12z m-54 -70
c-8 -8 -9 -4 -5 13 4 13 8 18 11 10 2 -7 -1 -18 -6 -23z m30 -15 c-3 -18 -7
-21 -13 -12 -4 8 -4 18 1 23 4 4 6 16 3 25 -4 12 -3 13 5 3 5 -7 7 -25 4 -39z
m-19 -23 c3 -11 1 -20 -4 -20 -5 0 -9 2 -9 4 0 2 -3 11 -6 20 -3 9 -2 16 4 16
5 0 12 -9 15 -20z m-23 -20 c0 -5 -4 -10 -10 -10 -5 0 -10 5 -10 10 0 6 5 10
10 10 6 0 10 -4 10 -10z m0 -36 c0 11 2 17 5 14 4 -3 3 -18 -1 -33 -4 -18 -9
-23 -14 -15 -5 9 -10 5 -16 -11 -4 -13 -7 -28 -5 -34 1 -5 -1 -7 -5 -2 -10 10
-13 48 -3 42 10 -7 19 22 12 43 -5 14 -3 13 10 -3 16 -19 16 -19 17 -1z m-48
-139 c11 -14 10 -25 -3 -25 -5 0 -7 6 -4 13 4 6 0 4 -8 -6 -14 -16 -14 -16
-14 7 0 25 15 30 29 11z m-26 -107 c4 -7 3 -8 -4 -4 -7 4 -12 2 -12 -5 0 -7
-3 -10 -6 -6 -6 5 3 27 11 27 2 0 7 -5 11 -12z m-23 -48 c3 -11 1 -18 -4 -14
-5 3 -9 12 -9 20 0 20 7 17 13 -6z m-12 -27 c12 -16 12 -17 -2 -6 -9 7 -20 9
-24 5 -5 -4 -5 -1 -1 6 9 16 11 15 27 -5z m-3 -38 c-3 -3 -9 2 -12 12 -6 14
-5 15 5 6 7 -7 10 -15 7 -18z m-42 -32 c-2 -16 -1 -22 1 -15 2 6 8 12 13 12 5
0 7 8 4 18 -5 13 -4 14 4 3 7 -10 6 -21 -5 -37 -8 -13 -12 -29 -8 -36 4 -7 0
-5 -9 6 -14 18 -15 17 -23 -10 -4 -16 -6 -36 -5 -44 2 -12 1 -12 -6 -1 -6 8
-2 34 11 72 22 65 28 74 23 32z m-15 -130 c-12 -20 -14 -14 -5 12 4 9 9 14 11
11 3 -2 0 -13 -6 -23z m-23 -14 c-3 -8 -7 -3 -11 10 -4 17 -3 21 5 13 5 -5 8
-16 6 -23z m-34 -61 c-1 -13 -3 -26 -3 -30 -1 -5 -6 -8 -12 -8 -8 0 -9 4 0 13
6 8 8 17 5 20 -3 3 -3 10 1 16 9 16 12 13 9 -11z m27 -5 c-8 -15 -10 -15 -11
-2 0 17 10 32 18 25 2 -3 -1 -13 -7 -23z m-21 -68 c-7 -20 -14 -34 -17 -31 -3
2 1 20 8 40 17 46 25 38 9 -9z m-20 12 c0 -8 -6 -14 -14 -14 -8 0 -12 6 -9 14
3 7 9 13 14 13 5 0 9 -6 9 -13z m-25 -47 c3 -5 1 -10 -4 -10 -6 0 -11 5 -11
10 0 6 2 10 4 10 3 0 8 -4 11 -10z m-22 -45 c-3 -9 -8 -14 -10 -11 -3 3 -2 9
2 15 9 16 15 13 8 -4z m20 -35 c3 -11 1 -18 -4 -14 -5 3 -9 12 -9 20 0 20 7
17 13 -6z m-30 -7 c-15 -6 -17 -39 -3 -48 6 -3 10 2 11 12 0 11 3 13 6 5 3 -7
0 -19 -7 -27 -6 -8 -9 -18 -6 -23 3 -5 -1 -18 -10 -28 -14 -18 -15 -18 -8 5 4
15 2 21 -4 17 -6 -3 -13 -2 -17 4 -3 5 1 10 9 10 9 0 16 7 16 16 0 8 -4 12
-10 9 -5 -3 -8 1 -5 9 3 9 7 23 10 31 2 8 10 15 17 14 10 0 10 -2 1 -6z m-57
-159 c-4 -9 -9 -15 -11 -12 -3 3 -3 13 1 22 4 9 9 15 11 12 3 -3 3 -13 -1 -22z
m18 -40 c3 -8 2 -12 -4 -9 -6 3 -10 10 -10 16 0 14 7 11 14 -7z m-13 -47 c-10
-9 -11 -8 -5 6 3 10 9 15 12 12 3 -3 0 -11 -7 -18z m-25 -48 c3 -6 2 -15 -4
-21 -6 -6 -8 -18 -5 -27 4 -14 3 -14 -6 -1 -6 9 -7 18 -1 24 13 13 13 29 0 21
-5 -3 -10 -1 -10 4 0 14 17 14 26 0z m-46 -81 c0 -19 -2 -20 -10 -8 -13 19
-13 30 0 30 6 0 10 -10 10 -22z m-26 -19 c-3 -6 0 -15 7 -20 7 -4 10 -11 6
-15 -11 -12 -30 13 -24 30 4 9 9 16 12 16 4 0 3 -5 -1 -11z m-43 -131 c-11
-18 -21 -29 -21 -25 0 13 33 67 38 62 3 -2 -5 -19 -17 -37z m51 17 c-2 -14 -6
-25 -8 -25 -2 0 -4 11 -4 25 0 14 4 25 9 25 4 0 6 -11 3 -25z m-24 -56 c-3 -8
-7 -3 -11 10 -4 17 -3 21 5 13 5 -5 8 -16 6 -23z m-50 -54 c-3 -3 -9 2 -12 12
-6 14 -5 15 5 6 7 -7 10 -15 7 -18z m33 2 c-10 -9 -11 -8 -5 6 3 10 9 15 12
12 3 -3 0 -11 -7 -18z m-49 -43 c-8 -14 -9 -13 -9 10 0 18 3 24 9 18 7 -7 7
-16 0 -28z m31 -21 c-3 -7 -9 -10 -14 -7 -14 8 -11 21 5 21 8 0 12 -6 9 -14z
m-43 -13 c0 -5 -2 -10 -4 -10 -3 0 -8 5 -11 10 -3 6 -1 10 4 10 6 0 11 -4 11
-10z m18 -25 c0 -14 -5 -22 -11 -18 -6 4 -8 -2 -4 -17 4 -16 3 -20 -5 -12 -8
8 -7 19 2 41 15 37 18 38 18 6z m-32 -11 c-3 -9 -6 -20 -6 -25 0 -6 -5 -7 -11
-3 -8 4 -9 -1 -5 -17 6 -20 5 -21 -4 -7 -12 19 3 68 21 68 6 0 8 -7 5 -16z m5
-91 c-8 -15 -10 -11 -9 15 1 26 3 30 10 18 5 -10 5 -23 -1 -33z m-56 -10 c-9
-15 -13 -19 -10 -8 4 11 10 29 13 40 3 11 7 14 9 8 3 -7 -3 -24 -12 -40z
m3785 1 c0 -8 -7 -14 -15 -14 -15 0 -21 21 -9 33 10 9 24 -2 24 -19z m3430 1
c0 -8 -7 -15 -15 -15 -8 0 -15 7 -15 15 0 8 7 15 15 15 8 0 15 -7 15 -15z
m-7207 -44 c-5 -3 -9 -18 -8 -33 2 -24 0 -26 -13 -15 -13 10 -14 8 -10 -15 3
-15 1 -25 -3 -22 -13 8 -11 38 3 52 9 9 9 12 0 12 -6 0 -1 10 11 23 12 12 24
18 26 13 2 -4 -1 -11 -6 -15z m18 -24 c-10 -9 -11 -8 -5 6 3 10 9 15 12 12 3
-3 0 -11 -7 -18z m-61 -81 c0 -3 -4 -8 -10 -11 -5 -3 -10 -1 -10 4 0 6 5 11
10 11 6 0 10 -2 10 -4z"/>
<path d="M7405 11870 c-8 -12 2 -30 17 -30 7 0 7 5 -1 14 -9 11 -9 15 1 19 9
4 9 6 1 6 -6 1 -15 -3 -18 -9z"/>
<path d="M11836 11477 c3 -10 9 -15 12 -12 3 3 0 11 -7 18 -10 9 -11 8 -5 -6z"/>
<path d="M6853 11294 c-15 -15 -17 -34 -4 -34 8 0 24 41 18 46 -1 1 -8 -4 -14
-12z"/>
<path d="M6520 8590 c0 -5 5 -10 10 -10 6 0 10 5 10 10 0 6 -4 10 -10 10 -5 0
-10 -4 -10 -10z"/>
<path d="M6410 8474 c0 -8 5 -12 10 -9 6 3 10 10 10 16 0 5 -4 9 -10 9 -5 0
-10 -7 -10 -16z"/>
<path d="M6650 7470 c0 -16 17 -20 28 -7 8 10 6 13 -9 14 -10 1 -19 -2 -19 -7z"/>
<path d="M6414 7211 c1 -16 4 -32 7 -35 3 -4 5 7 4 24 -1 17 -4 33 -7 36 -3 3
-5 -8 -4 -25z"/>
<path d="M6012 6568 c-14 -14 -16 -28 -3 -28 9 0 24 30 18 36 -2 2 -9 -2 -15
-8z"/>
</g>
</svg>
