<?xml version="1.0" standalone="no"?>
<!DOCTYPE svg PUBLIC "-//W3C//DTD SVG 20010904//EN"
 "http://www.w3.org/TR/2001/REC-SVG-20010904/DTD/svg10.dtd">
<svg version="1.0" xmlns="http://www.w3.org/2000/svg"
 width="600.000000pt" height="600.000000pt" viewBox="0 0 600.000000 600.000000"
 preserveAspectRatio="xMidYMid meet">

<g transform="translate(0.000000,600.000000) scale(0.100000,-0.100000)"
fill="#000000" stroke="none">
<path d="M1155 5178 c-8 -13 -27 -59 -41 -103 -21 -67 -27 -113 -36 -274 -7
-148 -14 -201 -26 -220 l-16 -26 25 23 c48 42 119 19 156 -51 9 -19 18 -67 21
-120 4 -68 10 -96 26 -120 31 -46 62 -43 93 8 l24 40 -24 -27 c-14 -15 -27
-32 -29 -38 -6 -18 -37 0 -53 31 -8 15 -15 52 -15 82 0 30 -6 75 -14 101 -19
62 -122 200 -143 191 -14 -5 -15 7 -10 107 6 128 17 189 54 302 23 72 27 78
39 61 8 -11 12 -28 8 -39 -3 -13 -2 -16 3 -9 6 8 25 -25 55 -95 26 -59 72
-165 103 -235 31 -70 53 -133 49 -139 -4 -6 -3 -8 4 -4 6 3 20 -13 34 -41 13
-25 44 -78 70 -117 37 -57 44 -74 35 -86 -10 -13 -10 -13 5 -2 14 11 19 9 37
-16 11 -16 17 -32 13 -36 -4 -4 -2 -6 3 -4 15 4 126 -92 119 -103 -3 -5 2 -6
10 -3 12 5 16 -1 16 -20 0 -19 -22 -49 -82 -112 -45 -47 -84 -81 -86 -75 -2 6
-8 11 -13 11 -5 0 -6 -7 0 -17 5 -10 16 -43 24 -73 24 -82 8 -287 -29 -398
-15 -45 -30 -79 -33 -76 -3 3 -8 54 -11 112 l-5 107 -13 -60 c-21 -97 -71
-244 -112 -330 -49 -101 -145 -201 -240 -248 -60 -30 -72 -32 -170 -32 -97 0
-110 2 -165 30 -78 39 -113 92 -120 185 l-5 65 15 -40 c19 -47 66 -99 108
-116 24 -10 42 -9 105 6 173 44 354 206 461 415 60 116 89 211 95 310 6 96 -8
140 -51 160 -55 25 -40 59 55 122 23 15 49 42 58 59 20 39 22 115 5 147 -10
19 -15 21 -28 11 -8 -7 -29 -12 -46 -11 l-32 2 34 -17 c45 -23 66 -72 50 -120
-8 -25 -26 -44 -64 -69 -69 -43 -85 -68 -85 -124 0 -53 -13 -70 -52 -70 -15 0
-28 -4 -28 -10 0 -19 49 -10 79 16 l31 26 11 -29 c14 -37 0 -83 -49 -159 -86
-130 -235 -239 -319 -232 -37 3 -38 4 -37 41 0 20 1 91 2 156 l2 119 45 -14
c49 -14 96 -10 133 14 37 24 25 34 -15 12 -46 -24 -93 -26 -139 -4 -39 19 -90
78 -99 117 -6 23 -3 28 27 40 18 8 40 22 48 32 13 15 9 15 -27 -4 -76 -38
-142 -20 -178 49 -33 64 -4 122 68 138 l42 10 -45 1 c-25 1 -55 4 -67 7 -22 6
-23 4 -23 -66 0 -55 5 -80 20 -105 25 -40 61 -65 95 -65 21 0 25 -5 25 -27 0
-16 7 -41 15 -56 19 -36 12 -50 -60 -115 -74 -68 -172 -200 -218 -294 -20 -43
-49 -121 -63 -175 -35 -129 -31 -260 9 -338 31 -63 79 -112 132 -136 46 -21
148 -39 219 -39 47 0 53 -3 95 -49 67 -72 107 -180 104 -286 -1 -71 -7 -93
-51 -200 -27 -66 -86 -199 -131 -296 -98 -213 -119 -292 -102 -388 7 -37 23
-87 37 -111 14 -24 23 -49 20 -55 -2 -7 -26 -18 -52 -24 -29 -7 -58 -24 -75
-43 l-29 -30 31 -29 c17 -16 36 -29 41 -29 6 0 7 -8 3 -18 -4 -9 -9 -31 -12
-49 -5 -32 -5 -32 29 -27 22 4 46 0 64 -9 49 -25 141 -30 224 -13 103 22 100
22 100 -26 0 -71 8 -88 42 -88 39 0 112 51 128 89 10 26 10 35 -4 56 -31 47
-86 42 -134 -13 -19 -21 -22 -22 -13 -6 14 29 67 73 97 80 20 5 35 24 19 24
-16 0 -81 -33 -106 -54 -16 -14 -46 -30 -67 -36 -61 -18 -202 -24 -252 -10
l-45 12 30 15 c52 26 106 66 116 85 17 32 -14 68 -59 68 l-37 1 25 14 c14 8
50 22 80 32 31 10 47 18 37 21 -23 5 -82 -15 -133 -43 l-40 -24 4 30 c4 27 7
29 48 29 28 0 64 10 96 26 59 30 117 33 172 10 41 -17 52 -25 311 -216 131
-97 195 -137 280 -175 98 -45 118 -50 188 -52 67 -1 82 -5 107 -27 16 -13 56
-30 87 -37 66 -15 345 -18 415 -5 l47 8 21 -45 c21 -44 47 -64 110 -82 14 -4
37 -18 51 -32 24 -22 27 -23 40 -7 7 9 31 27 51 40 21 14 38 30 38 36 0 6 -9
2 -20 -10 -12 -12 -23 -22 -25 -22 -3 0 -2 20 1 44 14 97 -79 160 -135 92 -16
-19 -17 -76 -2 -105 13 -24 7 -26 -37 -10 -68 23 -83 107 -32 177 36 50 57 62
107 62 46 0 98 -30 121 -70 9 -16 23 -32 30 -35 24 -9 11 26 -24 64 -35 40
-35 40 -13 51 76 41 376 3 491 -63 34 -18 38 -24 33 -49 -4 -15 -4 -36 0 -47
9 -29 66 -68 111 -75 41 -7 41 -7 36 20 -3 15 -25 46 -48 69 -24 23 -44 46
-44 52 0 6 22 32 49 59 43 43 50 55 56 104 7 61 -2 130 -39 295 -14 60 -24
110 -23 111 1 2 18 -12 38 -31 27 -24 37 -43 42 -75 8 -62 57 -110 112 -110
64 0 85 29 97 132 16 134 45 148 191 94 119 -45 156 -46 197 -6 17 17 37 30
45 30 22 0 18 43 -7 75 -21 27 -73 55 -103 55 -9 0 -15 -9 -15 -24 0 -40 11
-56 51 -77 22 -11 39 -23 39 -27 0 -18 -48 -52 -74 -52 -15 0 -62 14 -104 31
-50 21 -96 32 -130 33 -47 1 -57 -2 -78 -27 -19 -23 -24 -39 -24 -85 0 -105
-50 -161 -120 -132 -34 14 -54 45 -64 101 -4 22 -20 49 -46 74 -22 22 -40 42
-40 46 0 3 41 32 91 64 100 64 206 157 240 212 21 34 23 35 80 31 33 -2 59 -2
59 0 0 19 -26 41 -55 46 -20 4 -42 9 -49 12 -8 3 -16 -5 -20 -19 -11 -45 -98
-147 -170 -201 -39 -29 -115 -79 -170 -111 -97 -58 -100 -59 -188 -63 -87 -4
-90 -4 -119 24 -100 96 -169 274 -143 371 5 20 8 20 21 8 34 -34 184 -4 278
56 128 81 255 210 255 259 0 50 -73 63 -167 30 -68 -24 -63 -24 -63 -4 0 8 15
21 34 29 19 8 37 19 40 24 3 5 -6 41 -19 82 -35 103 -34 115 30 189 97 115
108 168 51 241 -19 24 -33 45 -31 47 2 2 36 -3 77 -12 40 -9 177 -25 304 -36
258 -23 315 -20 501 25 184 44 368 126 517 228 243 168 289 202 340 248 73 67
114 133 95 155 -14 17 -31 16 -129 -5 -25 -6 -97 -11 -160 -13 l-115 -2 105
-5 105 -6 -175 -18 c-196 -19 -381 -32 -705 -47 -121 -6 -276 -15 -345 -20
-199 -15 -400 -13 -434 5 -40 21 -46 19 -46 -16 0 -40 -44 -170 -76 -225 -30
-51 -88 -106 -143 -134 -95 -48 -291 -70 -461 -51 -187 20 -180 18 -180 55 0
56 -29 123 -70 160 -50 45 -113 63 -270 76 -254 21 -414 52 -497 94 -56 28
-83 55 -111 111 -11 22 -29 49 -41 59 -18 17 -21 30 -21 106 0 60 -8 118 -25
185 -28 113 -35 95 72 206 40 42 73 83 73 90 0 8 16 51 34 96 66 159 169 283
262 313 75 25 194 0 251 -53 13 -11 26 -18 29 -14 10 9 -15 36 -49 53 -16 9
-27 18 -24 20 3 3 40 11 83 19 76 14 77 14 14 7 -36 -3 -119 -7 -185 -7 -134
0 -160 -9 -226 -72 l-37 -35 -103 57 c-136 75 -143 80 -288 209 -126 113 -195
195 -290 344 -29 45 -57 82 -61 82 -5 0 -16 -10 -25 -22z m191 -239 c59 -75
218 -226 309 -293 33 -25 103 -68 157 -96 54 -28 98 -53 98 -55 0 -3 -14 -20
-31 -39 -33 -38 -109 -178 -109 -202 0 -7 -4 -14 -8 -14 -18 0 -164 138 -206
195 -48 66 -138 238 -185 358 -17 42 -52 120 -78 174 -60 125 -60 125 -27 78
15 -22 51 -70 80 -106z m364 -1438 c62 -112 171 -146 638 -196 228 -24 272
-60 288 -238 7 -82 6 -84 -43 -71 -19 5 -23 13 -23 49 0 28 -6 47 -19 59 -17
15 -19 15 -39 -1 -12 -10 -41 -73 -68 -148 -57 -160 -70 -187 -149 -300 -95
-136 -118 -150 -61 -38 51 103 62 146 16 66 -16 -28 -46 -64 -67 -80 -32 -25
-45 -28 -107 -28 -94 0 -141 27 -269 150 -54 52 -106 96 -115 99 -44 14 -157
225 -168 313 -5 46 -2 64 21 120 l28 65 19 -73 c34 -135 142 -276 245 -321 68
-30 123 -42 123 -27 0 35 -44 97 -138 193 -60 61 -132 143 -161 181 -29 39
-59 69 -66 67 -10 -2 -9 11 5 60 10 35 24 94 30 132 l13 69 21 -28 c12 -16 32
-49 46 -74z m3690 39 c0 -28 -59 -82 -214 -199 -219 -164 -356 -243 -532 -304
-323 -113 -701 -106 -1156 20 l-96 27 45 50 c55 61 100 156 109 228 l6 53 142
-3 c144 -3 341 8 911 53 411 32 590 52 668 75 87 25 117 25 117 0z m-1917
-535 c57 -23 71 -34 88 -67 26 -51 35 -127 19 -159 -7 -13 -33 -54 -58 -91
-43 -64 -45 -70 -43 -135 0 -37 2 -79 4 -91 2 -20 -6 -27 -42 -40 -32 -13 -48
-26 -60 -52 -26 -56 -61 -63 -316 -68 -297 -5 -508 20 -701 84 -127 42 -123
34 -55 120 67 85 140 222 196 369 22 55 41 103 44 107 3 4 24 3 46 -2 140 -33
554 -80 699 -80 180 0 193 23 48 84 -50 22 -92 44 -92 49 0 20 153 1 223 -28z
m-2591 -1646 c-34 -30 -62 -35 -70 -11 -2 7 5 12 20 12 13 0 34 7 48 14 38 21
38 18 2 -15z"/>
<path d="M1880 3152 c0 -34 124 -208 210 -294 96 -97 118 -105 171 -67 37 26
39 71 4 139 -50 99 -111 147 -267 209 -88 36 -118 39 -118 13z"/>
<path d="M1196 5067 c3 -10 9 -15 12 -12 3 3 0 11 -7 18 -10 9 -11 8 -5 -6z"/>
<path d="M1380 4661 c0 -6 4 -13 10 -16 6 -3 7 1 4 9 -7 18 -14 21 -14 7z"/>
<path d="M2485 4641 c-38 -5 -14 -8 105 -13 226 -10 341 -38 536 -133 184 -89
351 -228 440 -366 27 -41 65 -119 84 -173 67 -191 140 -237 452 -286 68 -10
191 -30 273 -44 83 -14 191 -30 240 -35 203 -23 331 -33 350 -29 11 2 -45 10
-125 17 -171 15 -294 32 -485 66 -77 14 -201 34 -275 45 -289 43 -340 78 -424
290 -71 178 -147 273 -339 421 -101 79 -149 105 -279 155 -187 72 -404 106
-553 85z"/>
<path d="M1033 4505 c0 -27 2 -38 4 -22 2 15 2 37 0 50 -2 12 -4 0 -4 -28z"/>
<path d="M2408 4535 c-44 -24 -45 -50 -4 -109 38 -55 43 -82 32 -161 -6 -43
-5 -47 6 -30 7 11 13 49 13 85 0 59 -3 69 -32 105 -38 46 -41 65 -13 90 15 14
31 17 70 13 56 -6 77 6 29 16 -47 9 -71 7 -101 -9z"/>
<path d="M2620 4490 c0 -5 4 -10 8 -10 5 0 16 -15 25 -32 12 -26 16 -29 16
-13 1 11 -6 31 -15 43 -16 23 -34 29 -34 12z"/>
<path d="M1483 4467 c0 -8 6 -14 14 -14 9 0 10 4 2 14 -6 7 -12 13 -14 13 -1
0 -2 -6 -2 -13z"/>
<path d="M1041 4434 c0 -11 3 -14 6 -6 3 7 2 16 -1 19 -3 4 -6 -2 -5 -13z"/>
<path d="M2043 4432 c-97 -40 -163 -145 -163 -261 0 -114 72 -171 216 -171 77
0 84 2 103 26 30 38 62 147 68 234 5 64 2 82 -15 117 -36 69 -119 91 -209 55z
m191 -72 c38 -95 0 -142 -46 -57 -15 27 -31 43 -46 45 -12 2 -22 7 -22 12 0
16 44 40 71 40 22 0 30 -7 43 -40z"/>
<path d="M2708 4428 c-16 -5 -28 -14 -28 -19 0 -12 5 -12 48 7 60 25 208 -5
251 -50 l23 -25 -43 -11 c-106 -27 -221 -93 -294 -169 -56 -58 -35 -51 45 17
152 128 284 165 449 127 186 -44 284 -153 331 -367 7 -32 17 -58 22 -58 10 0
10 3 -6 81 -17 77 -62 173 -106 223 -39 44 -139 107 -205 130 -27 9 -78 20
-113 23 -54 5 -68 11 -96 39 -54 54 -199 81 -278 52z"/>
<path d="M2579 4343 c-30 -34 -119 -209 -119 -233 0 -26 19 -5 35 38 28 73 60
134 99 185 43 56 32 63 -15 10z"/>
<path d="M1066 4340 c17 -104 17 -110 1 -116 -8 -3 -33 4 -56 15 -22 12 -48
21 -58 21 -10 -1 9 -14 41 -30 93 -45 121 -17 86 86 -12 37 -18 46 -14 24z"/>
<path d="M3488 4162 c74 -76 131 -217 132 -324 0 -26 4 -38 14 -38 8 0 17 4
20 8 9 15 -60 238 -87 285 -26 44 -99 117 -116 117 -6 0 11 -22 37 -48z"/>
<path d="M1194 4124 c-9 -49 1 -114 21 -133 16 -15 17 -14 9 9 -5 14 -9 55 -9
93 0 73 -10 88 -21 31z"/>
<path d="M2872 4109 c-92 -46 -220 -194 -209 -241 21 -80 136 -186 236 -215
115 -33 273 -1 388 80 69 48 72 92 16 199 -44 84 -132 169 -199 192 -78 26
-160 21 -232 -15z m269 -42 c75 -40 110 -133 68 -183 -23 -28 -93 -5 -75 25
13 20 -7 61 -38 80 -18 11 -51 23 -74 27 -57 9 -74 30 -43 55 33 27 106 25
162 -4z"/>
<path d="M1074 4063 c-16 -20 -34 -28 -70 -33 -44 -6 -46 -7 -22 -14 16 -5 40
-5 54 -2 27 7 74 48 74 66 0 17 -14 10 -36 -17z"/>
<path d="M2211 3954 c-48 -40 -39 -105 14 -103 20 0 20 0 -1 9 -12 4 -24 16
-28 26 -8 21 17 60 43 69 31 10 98 -13 135 -45 18 -17 40 -30 47 -30 20 1 -49
59 -96 81 -54 25 -78 24 -114 -7z"/>
<path d="M2325 3837 c-16 -13 -13 -14 28 -13 35 1 43 4 35 14 -14 16 -40 15
-63 -1z"/>
<path d="M2020 3698 c0 -29 89 -116 145 -143 69 -32 190 -50 269 -39 33 5 61
14 63 20 3 8 -33 11 -124 11 -156 -2 -192 11 -289 105 -38 36 -64 55 -64 46z"/>
<path d="M4978 3533 c7 -3 16 -2 19 1 4 3 -2 6 -13 5 -11 0 -14 -3 -6 -6z"/>
<path d="M3690 2261 c-5 -11 -10 -30 -10 -43 0 -13 -8 -45 -19 -73 -18 -48
-18 -75 -1 -75 14 0 114 89 127 113 17 31 16 39 -12 70 -30 32 -70 35 -85 8z"/>
<path d="M3827 2243 c-3 -5 -8 -24 -12 -43 -15 -76 -86 -160 -199 -238 -26
-18 -46 -36 -43 -39 9 -8 126 79 173 129 23 23 51 61 63 83 19 36 20 37 15 10
-3 -16 -15 -65 -26 -108 -11 -43 -18 -80 -15 -84 15 -14 61 12 121 71 55 52
66 69 66 96 0 65 -101 129 -130 83 -9 -14 -10 -11 -5 15 6 30 2 42 -8 25z"/>
<path d="M4026 1895 c-32 -29 -36 -37 -26 -54 11 -22 40 -41 62 -41 7 0 -2 9
-19 20 -47 28 -44 46 12 85 11 7 17 16 14 19 -3 3 -22 -10 -43 -29z"/>
<path d="M3580 1783 c-14 -2 -55 -10 -92 -18 -37 -8 -96 -15 -130 -15 -37 0
-69 -5 -76 -12 -20 -20 -14 -54 15 -88 24 -29 31 -32 67 -27 23 2 75 20 116
39 41 19 106 47 143 63 48 20 67 33 65 44 -3 16 -56 23 -108 14z"/>
<path d="M3752 1577 c-43 -46 -16 -157 38 -157 45 0 76 120 40 154 -28 26 -55
28 -78 3z"/>
<path d="M1630 1130 c8 -5 22 -10 30 -10 13 0 13 1 0 10 -8 5 -22 10 -30 10
-13 0 -13 -1 0 -10z"/>
<path d="M3213 1123 c4 -6 22 -14 41 -17 48 -9 112 -59 136 -105 28 -56 27
-85 -2 -44 -52 74 -140 83 -146 16 -2 -17 4 -46 13 -62 15 -30 15 -31 -6 -31
-12 0 -55 18 -96 40 -40 22 -73 38 -73 35 0 -15 113 -76 160 -86 30 -6 71 -22
91 -35 19 -13 38 -24 41 -24 3 0 16 24 28 53 12 28 26 54 31 57 30 19 -57 152
-121 185 -35 18 -105 31 -97 18z"/>
<path d="M1483 1100 c-34 -14 -28 -21 7 -9 17 6 30 13 30 15 0 6 -12 4 -37 -6z"/>
<path d="M3006 954 c-5 -13 -3 -14 6 -6 7 5 22 12 33 15 16 4 14 5 -6 6 -17 1
-29 -5 -33 -15z"/>
<path d="M3518 923 c7 -3 16 -2 19 1 4 3 -2 6 -13 5 -11 0 -14 -3 -6 -6z"/>
</g>
</svg>
